<svg width="40" height="40" viewBox="0 0 40 40" fill="none" xmlns="http://www.w3.org/2000/svg">
<path d="M11.1722 19.3603C11.1722 21.4957 12.9298 23.2283 15.0742 23.1876C17.1699 23.1478 18.8282 21.3922 18.8282 19.2961V19.3603C18.8282 17.292 17.1745 15.5047 14.9569 15.5201C12.8577 15.5346 11.1722 17.2611 11.1722 19.3603ZM15.2845 18.2392C15.9359 18.0451 16.6287 18.4328 16.7743 19.1314C16.8956 19.7795 16.4881 20.3772 15.854 20.5095C15.2037 20.6312 14.607 20.2203 14.476 19.5892C14.3688 19.0192 14.6692 18.4398 15.2845 18.2392Z" fill="#0D0C0C"/>
<path d="M39.5001 29.6503L35.9545 27.1649C36.1265 26.1789 36.1713 25.1938 36.1713 24.2819C36.1713 23.1175 35.8878 22.0805 35.3274 21.1827L38.7332 19.1115C39.2216 18.8145 39.4245 18.2085 39.2134 17.6774L36.951 11.986C38.2708 11.2114 39.3078 9.94976 39.7611 8.36599C40.6976 5.09431 38.7978 1.67076 35.5261 0.734226C34.9106 0.558138 34.2678 0.90836 34.0822 1.52107L32.9496 5.25938L29.3612 4.17035C28.7349 3.98021 28.0743 4.34058 27.8943 4.96923C26.661 9.27807 30.3142 13.439 34.7406 12.7701L36.6699 17.6234L33.6653 19.4505C32.9778 18.9594 32.1511 18.5496 31.1716 18.2113V19.3603C31.1716 22.7634 28.403 25.5319 24.9999 25.5319C22.9448 25.5319 21.1224 24.5214 20.0001 22.972C18.8778 24.5214 17.0553 25.5319 15.0003 25.5319C11.5972 25.5319 8.8286 22.7634 8.8286 19.3603V18.2113C7.84902 18.5497 7.02233 18.9594 6.33486 19.4505L3.33028 17.6234L5.2595 12.7701C9.69114 13.4399 13.338 9.27385 12.1057 4.96923C11.9255 4.33988 11.2646 3.98052 10.6388 4.17035L7.05053 5.25946L5.91792 1.52115C5.7323 0.908439 5.0892 0.55806 4.47391 0.734304C1.20223 1.67083 -0.697552 5.09438 0.238978 8.36607C0.6924 9.95 1.72916 11.2116 3.04896 11.9862L0.786615 17.6774C0.57545 18.2085 0.778334 18.8145 1.26668 19.1115L4.67257 21.1827C4.11212 22.0805 3.82862 23.1175 3.82862 24.2819C3.82862 25.1959 3.87377 26.1806 4.04533 27.1649L0.499906 29.6503C0.123435 29.9142 -0.0639802 30.374 0.0207825 30.8258L0.723883 34.5757C0.843332 35.2127 1.45612 35.6305 2.09157 35.5115C2.72772 35.3922 3.14669 34.7799 3.0274 34.1438L2.46343 31.136L4.76054 29.5258C5.15045 30.3698 5.69777 31.1667 6.4636 31.8645L5.42192 32.9062C5.15427 33.1738 5.0324 33.5542 5.09467 33.9274L5.71964 37.6773C5.81519 38.2505 6.31165 38.6567 6.87413 38.6567C7.60153 38.6567 8.15011 38.0042 8.03144 37.2921L7.5056 34.137L8.45634 33.1863C9.10359 33.497 9.81239 33.7528 10.5635 33.9628L10.3413 34.2221C10.0572 34.5533 9.98082 35.015 10.1428 35.42L11.3928 38.5449C11.632 39.143 12.3125 39.4391 12.916 39.1977C13.5169 38.9573 13.8092 38.2754 13.5688 37.6745L12.5825 35.2087L13.1851 34.5059C16.8641 35.0483 23.084 35.0447 26.8118 34.5021L27.4176 35.2087L26.4313 37.6745C26.191 38.2754 26.4832 38.9573 27.084 39.1977C27.6887 39.4397 28.3685 39.1419 28.6073 38.5449L29.8572 35.42C30.0193 35.0149 29.9429 34.5533 29.6589 34.2221L29.4371 33.9634C30.2222 33.7446 30.921 33.486 31.5433 33.1857L32.4946 34.137L31.9687 37.2921C31.8497 38.0063 32.4003 38.6567 33.1259 38.6567C33.6884 38.6567 34.185 38.2505 34.2804 37.6773L34.9054 33.9274C34.9676 33.5542 34.8457 33.1738 34.5782 32.9062L33.5344 31.8625C34.3007 31.165 34.8499 30.3693 35.2399 29.5261L37.5366 31.136L36.9726 34.1438C36.8534 34.7799 37.2724 35.3922 37.9084 35.5115C38.5416 35.6303 39.1564 35.2145 39.2762 34.5757L39.9793 30.8258C40.064 30.374 39.8766 29.9143 39.5001 29.6503Z" fill="#0D0C0C"/>
<path d="M25.0738 23.1876C27.1696 23.1478 28.8279 21.3922 28.8279 19.2961V19.3603C28.8279 17.2893 27.1711 15.52 24.9999 15.52C22.8275 15.52 21.1719 17.2904 21.1719 19.3603C21.1719 21.489 22.9228 23.2284 25.0738 23.1876ZM24.035 18.2392C24.6749 18.0442 25.3763 18.4263 25.5241 19.1314C25.6455 19.78 25.2392 20.3771 24.6038 20.5095C23.9588 20.6303 23.3579 20.2259 23.2257 19.5892C23.1155 19.0002 23.4385 18.4295 24.035 18.2392Z" fill="#0D0C0C"/>
</svg>
