<svg width="38" height="36" viewBox="0 0 38 36" fill="none" xmlns="http://www.w3.org/2000/svg">
<path d="M35.6486 7.74757L34.0641 7.19657C32.587 4.15009 29.5896 2.43577 25.36 2.22946C23.0575 2.11718 20.975 2.48104 19.9534 2.70359C18.6678 1.54851 16.5639 0.925816 13.684 0.850419C11.38 0.79016 9.40398 1.10548 9.32094 1.11891C8.78292 1.20611 8.38715 1.67014 8.38589 2.21522C8.3847 2.76029 8.77839 3.22611 9.31604 3.31568C11.292 3.64502 12.1075 5.8009 12.4032 6.9378C10.0154 8.51847 8.22768 11.682 7.08202 16.36C6.41465 19.0851 6.15343 21.5819 6.05963 22.763C1.38358 24.8882 0.0923994 29.5641 0.037484 29.771C-0.104406 30.3051 0.166981 30.8623 0.6748 31.08C3.60788 32.337 6.06067 31.7842 7.52788 31.1617C8.78655 34.2077 13.2331 35.0686 13.4521 35.1092C13.8612 35.185 14.2812 35.0261 14.5373 34.6931C16.6562 31.9368 13.6244 27.0978 12.8969 26.0185C12.2914 23.7579 12.5975 21.8622 13.8305 20.2276C15.219 18.3868 17.8331 16.8717 21.4683 15.7796C21.4683 15.7794 21.4684 15.7793 21.4684 15.7791C25.3205 14.6221 30.6055 13.9532 34.4337 13.9532C35.7831 13.9532 36.884 13.5003 37.4543 12.7105C38.7208 10.9561 37.6442 8.44159 35.6486 7.74757ZM27.633 9.7488C27.1029 9.91777 26.4488 9.64787 26.2445 9.00744C26.0658 8.42044 26.3984 7.79871 26.9859 7.61971C27.6129 7.43315 28.2643 7.81132 28.4011 8.46719C28.5117 9.0585 28.1595 9.58836 27.633 9.7488Z" fill="#0D0C0C"/>
</svg>
