<svg width="40" height="41" viewBox="0 0 40 41" fill="none" xmlns="http://www.w3.org/2000/svg">
<path d="M10.4225 4.17634C11.6754 4.45813 12.5981 4.89698 13.2958 5.40455C16.3623 4.55349 19.9155 4.21086 23.2723 4.54021C19.8656 0.692188 15.1348 0.224443 10.2864 1.91571C9.1199 2.32262 9.27361 3.94469 10.4225 4.17634Z" fill="#0D0C0C"/>
<path d="M5.44715 25.3384C7.77487 23.3069 10.4274 22.8422 13.3312 23.9572C16.0283 25.0264 20.4392 26.289 24.4616 26.9371C24.1715 26.4808 24.169 26.4779 24.1492 26.4438C23.0643 24.558 20.6848 19.664 22.018 14.9619C22.8038 12.1909 24.7233 9.9615 27.7234 8.33552C27.7479 8.32178 27.7434 8.32428 28.2303 8.05788C24.5695 6.67276 20.4099 6.47235 16.5643 7.09107C13.0842 7.64777 11.2691 8.5257 9.56455 9.65222C1.27696 15.1229 -1.09167 22.5414 0.43582 28.7683C0.435976 28.7689 0.43621 28.7695 0.436366 28.7701C2.22683 36.0618 9.71255 40.6274 10.0303 40.8182C10.2088 40.9253 10.4137 40.9853 10.6432 40.9853C10.9715 40.9853 13.0325 40.9159 14.4632 39.2308C15.7276 37.7415 16.0875 35.5244 15.5325 32.6414C15.392 31.9103 14.6027 31.4874 13.9093 31.791C13.8899 31.7994 11.9459 32.6373 9.57525 32.5483C6.72715 32.4411 4.488 31.0697 2.91146 28.4697C3.31805 27.7628 4.1706 26.4524 5.44715 25.3384Z" fill="#0D0C0C"/>
<path d="M39.9848 24.5577C38.9544 17.8434 36.0147 12.3374 30.8386 9.3017C28.1086 10.7955 29.0503 10.2806 28.8465 10.3918C26.4187 11.706 24.8798 13.4586 24.2723 15.6011C23.1873 19.4276 25.225 23.6093 26.1676 25.2533L27.4822 27.3211C31.399 27.6783 35.4631 27.4625 38.8963 25.9925C39.3047 25.8175 39.5953 25.7155 39.8153 25.3708C39.9694 25.129 40.0295 24.8405 39.9848 24.5577ZM31.2618 18.4143C30.586 18.4143 30.0804 17.8746 30.0804 17.2427C30.0804 16.6099 30.5869 16.0712 31.2618 16.0712C31.9088 16.0712 32.4333 16.5958 32.4333 17.2427C32.4333 17.8897 31.9088 18.4143 31.2618 18.4143Z" fill="#0D0C0C"/>
</svg>
