<svg width="36" height="37" viewBox="0 0 36 37" fill="none" xmlns="http://www.w3.org/2000/svg">
<path d="M17.4498 3.77912C16.4827 4.7462 16.4886 6.31335 17.4634 7.27347C18.1272 7.92727 18.3483 8.14077 18.4216 8.21018C18.9981 8.60589 19.7987 8.53437 20.2992 8.03402C20.711 7.62207 21.379 7.62207 21.7909 8.03402C22.2029 8.44597 22.2029 9.11383 21.7909 9.52578C21.2151 10.1016 21.2151 11.0385 21.7909 11.6143C22.3729 12.1962 23.3058 12.188 23.8795 11.6143C24.2913 11.2024 24.9593 11.2024 25.3712 11.6143C25.7832 12.0263 25.7832 12.6941 25.3712 13.1061C24.7996 13.6777 24.7873 14.6106 25.3712 15.1946C25.947 15.7703 26.8839 15.7704 27.4597 15.1946C27.8716 14.7828 28.5396 14.7826 28.9515 15.1946C29.3635 15.6065 29.3635 16.2744 28.9515 16.6864C28.4571 17.1808 28.3814 17.9683 28.7633 18.5458L29.7789 19.5615C30.6573 20.4399 32.0394 20.5137 33.0032 19.7843C37.0875 15.4059 36.9972 8.52136 32.7307 4.25479C28.5948 0.118944 21.9985 -0.0927281 17.6099 3.61899L17.4498 3.77912Z" fill="#0D0C0C"/>
<path d="M27.1018 19.8504C26.6341 19.2124 26.4037 18.4718 26.4025 17.7349C24.4002 17.7277 22.8367 16.1056 22.8293 14.156C20.872 14.1487 19.2576 12.5779 19.2504 10.5829C18.5135 10.5817 17.773 10.3513 17.135 9.88363C17.0587 9.82731 17.0275 9.80417 16.1808 8.97119C15.3735 9.8432 14.9047 11.0176 14.9472 12.3115C12.7821 12.9871 11.3612 14.1936 10.8138 15.8359C10.3663 17.1784 10.3168 18.5059 10.2732 19.6772C10.1982 21.6884 10.144 23.1416 8.41656 24.2932C5.25272 26.4024 1.29817 25.8435 0.0295447 31.1124C-0.106812 31.6788 0.24178 32.2485 0.808092 32.3848C1.37314 32.5208 1.94381 32.1741 2.08059 31.6062C2.71054 28.99 4.07987 28.4729 6.15243 27.6904C7.20271 27.2938 8.393 26.8444 9.58666 26.0486C13.4698 23.4598 11.7779 19.615 12.8152 16.5031C13.1923 15.3716 14.3455 14.7249 15.4794 14.3561C15.7671 14.9058 16.1629 15.3957 16.6528 15.7969C16.4929 16.6273 16.6119 17.4897 16.9819 18.245C16.0454 19.4867 15.47 20.8167 15.2709 22.2088C14.8529 25.1358 13.7368 26.9813 12.0435 27.5457C10.9079 27.9242 7.45186 29.0763 4.80237 32.3881C3.01075 34.6277 1.25253 34.7973 1.05507 34.8057C0.475745 34.8057 0.00612708 35.2781 0.00612708 35.8575C0.00612708 36.4368 0.475745 36.9148 1.05507 36.9148C1.17054 36.9148 3.91187 36.8783 6.44976 33.7061C8.47584 31.1735 10.9933 30.1196 12.7106 29.5472C14.4556 28.9655 16.6787 27.2719 17.3593 22.5073C17.4906 21.5895 17.8516 20.6948 18.4349 19.837C19.2573 20.3363 20.2437 20.5145 21.1884 20.3326C21.519 20.7363 21.9097 21.0764 22.3445 21.3448C22.0388 23.0739 21.4697 24.3465 20.7455 24.8896C18.2254 26.7796 17.8204 31.0209 13.8089 32.0237C8.98287 33.2303 8.12064 35.2219 7.99687 35.6088C7.97767 35.6646 7.95847 35.7751 7.95847 35.9018C7.95847 36.4845 8.43076 36.9852 9.01339 36.9852C9.45438 36.9852 9.77253 36.6937 9.98926 36.3018C10.0511 36.1867 10.789 34.9533 14.3206 34.0704C19.2739 32.8321 20.0628 28.0387 22.0113 26.5773C23.3582 25.5671 24.0304 23.7062 24.3645 22.0183C25.7424 22.1499 27.0534 21.7009 28.0267 20.7927C27.1483 19.9142 27.1682 19.941 27.1018 19.8504Z" fill="#0D0C0C"/>
</svg>
