<svg width="36" height="41" viewBox="0 0 36 41" fill="none" xmlns="http://www.w3.org/2000/svg">
<path d="M35.8856 24.4703C35.4484 21.2819 33.3431 18.5675 30.3964 17.2734L26.0656 15.3714C22.4403 13.812 18.7963 14.4829 16.0672 17.2119C12.905 20.374 13.121 23.6562 15.1468 25.6821C17.1723 27.7073 20.4541 27.9245 23.617 24.7611C24.0745 24.3035 24.8166 24.3033 25.2742 24.7609C25.7319 25.2184 25.732 25.9604 25.2744 26.4182C23.3792 28.3138 21.2333 29.3824 19.0686 29.5085C12.9559 29.8639 7.77245 22.192 14.4099 15.5547C17.8312 12.1333 22.5119 11.2896 26.9958 13.2202C27.157 13.2913 26.4116 12.9635 28.5733 13.9129L34.4815 8.00465C34.9391 7.54707 34.9391 6.80503 34.4815 6.34736C27.2217 -0.912503 16.5058 -1.27235 7.0447 8.18872C-2.19566 17.4289 -1.83409 28.5881 5.20335 35.6255C12.3153 42.7375 23.025 43.3993 32.6401 33.7841C35.2547 31.1696 36.3606 27.9352 35.8856 24.4703Z" fill="#0D0C0C"/>
</svg>
