<svg width="40" height="41" viewBox="0 0 40 41" fill="none" xmlns="http://www.w3.org/2000/svg">
<path d="M17.5235 32.3121H18.4888L11.8544 6.48778C8.54791 5.04045 4.77388 6.74485 3.59924 10.0726L17.5235 32.3121Z" fill="#0D0C0C"/>
<path d="M39.7311 22.1354C39.7305 22.1256 39.7297 22.1158 39.7288 22.106L39.7273 22.1062C39.7273 22.1061 39.7273 22.1059 39.7272 22.1059L39.7288 22.1057C39.4798 19.3665 37.2426 17.4169 34.581 17.3966L25.2422 32.3121H31.26L37.8787 26.5559C38.7797 25.8092 39.3861 24.8071 39.6329 23.657C39.6353 23.6461 39.814 22.7978 39.7311 22.1354Z" fill="#0D0C0C"/>
<path d="M21.5112 32.3121H22.4765L36.4011 10.0719C35.2316 6.74056 31.4302 5.03959 28.1464 6.48474L21.5112 32.3121Z" fill="#0D0C0C"/>
<path d="M20 28.7739L26.2531 4.4338C23.3456 -0.179031 16.6358 -0.146838 13.7452 4.42716L20 28.7739Z" fill="#0D0C0C"/>
<path d="M14.7579 32.3121L5.41913 17.3966C2.75215 17.4168 0.520084 19.3687 0.271295 22.1056L0.272936 22.1058L0.272857 22.1061L0.271295 22.1059C0.270357 22.1157 0.269654 22.1255 0.269029 22.1353C0.186047 22.7978 0.364825 23.646 0.367169 23.6569C0.613926 24.807 1.22035 25.8091 2.12135 26.5559L8.74004 32.3121H14.7579V32.3121Z" fill="#0D0C0C"/>
<path d="M10.9103 34.6562L11.7864 39.1005C12.0045 40.1927 12.9712 40.9854 14.0851 40.9854H25.915C27.0289 40.9854 27.9956 40.1927 28.2144 39.0976L29.0899 34.6562C28.2184 34.6562 11.5723 34.6562 10.9103 34.6562Z" fill="#0D0C0C"/>
</svg>
