<svg width="38" height="39" viewBox="0 0 38 39" fill="none" xmlns="http://www.w3.org/2000/svg">
<path d="M18.7967 19.828C18.7954 19.9264 18.8106 19.9652 18.8357 19.9914C18.8567 20.0134 18.8859 20.0242 18.9158 20.0209C19.0813 20.0029 19.2148 19.8651 19.3098 19.7281C19.1404 19.7478 18.961 19.7797 18.7967 19.828Z" fill="#0D0C0C"/>
<path d="M19.7903 19.077L19.6727 19.0361C19.5631 18.81 19.3406 18.6828 19.0267 18.6675C18.8558 18.6592 18.7013 18.6862 18.6254 18.7027C18.53 18.617 18.3739 18.5707 18.1601 18.5651C17.9891 18.5607 17.8425 18.5841 17.8363 18.5851C17.7964 18.5915 17.767 18.626 17.7669 18.6664C17.7668 18.7069 17.7961 18.7415 17.836 18.7481C17.9826 18.7726 18.0431 18.9326 18.0651 19.0169C17.8879 19.1343 17.7552 19.369 17.6702 19.7162C17.6206 19.9185 17.6012 20.1038 17.5943 20.1915C17.2472 20.3492 17.1514 20.6962 17.1473 20.7116C17.1368 20.7512 17.1569 20.7926 17.1946 20.8087C17.4123 20.902 17.5943 20.861 17.7032 20.8148C17.7967 21.0409 18.1267 21.1048 18.1429 21.1078C18.1733 21.1134 18.2045 21.1016 18.2235 21.0769C18.3807 20.8723 18.1557 20.5132 18.1017 20.4331C18.0568 20.2653 18.0795 20.1246 18.171 20.0033C18.2741 19.8667 18.4681 19.7542 18.7379 19.6732C18.7379 19.6732 18.7379 19.6731 18.7379 19.6731C19.0238 19.5873 19.416 19.5376 19.7002 19.5376C19.8003 19.5376 19.882 19.504 19.9243 19.4454C20.0183 19.3152 19.9384 19.1285 19.7903 19.077ZM19.1954 19.2256C19.1561 19.2381 19.1075 19.2181 19.0924 19.1705C19.0791 19.127 19.1038 19.0808 19.1474 19.0676C19.1939 19.0537 19.2423 19.0818 19.2524 19.1304C19.2606 19.1743 19.2345 19.2137 19.1954 19.2256Z" fill="#0D0C0C"/>
<g clip-path="url(#clip0_988_2224)">
<path d="M33.2498 8.18501H24.1906C23.9577 6.53033 23.2171 4.90963 22.0805 3.61238C19.013 0.111605 14.2403 0.107746 11.1694 3.61238C9.82578 5.14594 8.98052 7.17936 8.98052 9.37249H7.12507C6.51025 9.37249 6.01181 9.87094 6.01181 10.4858C6.01181 11.1006 6.51025 11.599 7.12507 11.599H8.98052V14.1224H4.75011C4.13529 14.1224 3.63684 14.6209 3.63684 15.2357C3.63684 15.8505 4.13529 16.349 4.75011 16.349H8.98052V18.8724H7.12507C6.51025 18.8724 6.01181 19.3708 6.01181 19.9856C6.01181 20.6004 6.51025 21.0989 7.12507 21.0989H8.98052V23.6223H4.75011C4.13529 23.6223 3.63684 24.1207 3.63684 24.7356C3.63684 25.3504 4.13529 25.8488 4.75011 25.8488H8.98052V31.2776C8.98052 35.4774 12.3703 38.9854 16.6249 38.9854C20.8401 38.9854 24.2694 35.5228 24.2694 31.2667C24.2694 30.6519 23.7709 30.1535 23.1561 30.1535C22.5413 30.1535 22.0428 30.6519 22.0428 31.2667C22.0428 32.6172 20.9441 33.7159 19.5937 33.7159C18.4624 33.7159 17.624 32.789 17.1016 30.9609C16.7096 29.5887 16.8021 28.3917 17.3767 27.403C17.7416 26.7751 18.2011 26.4151 18.3479 26.3102C22.9087 24.3115 25.0827 22.1761 24.9925 19.7841C24.8869 16.9834 21.589 15.0033 18.9963 13.9108C19.1412 13.6061 19.5617 13.0043 20.7538 12.3781C22.4616 11.4809 26.0157 10.4114 33.2497 10.4114C33.8645 10.4114 34.363 9.91295 34.363 9.29813C34.363 8.68331 33.8646 8.18501 33.2498 8.18501ZM18.729 8.58207C18.1417 8.76042 17.5211 8.42919 17.3411 7.84064C17.1716 7.26976 17.4645 6.64952 18.0833 6.45203C18.6913 6.26678 19.3576 6.63022 19.498 7.29959C19.6003 7.84665 19.3064 8.39727 18.729 8.58207Z" fill="#0D0C0C"/>
</g>
<defs>
<clipPath id="clip0_988_2224">
<rect width="38" height="38" fill="white" transform="translate(0 0.985352)"/>
</clipPath>
</defs>
</svg>
