<svg width="28" height="41" viewBox="0 0 28 41" fill="none" xmlns="http://www.w3.org/2000/svg">
<path d="M10.3283 18.7926C7.34291 18.1037 9.55604 18.6145 1.73658 16.8099C0.691504 19.5861 0.691738 22.3846 1.73674 25.1607L10.3283 23.1781V18.7926Z" fill="#0D0C0C"/>
<path d="M25.8752 27.3135C25.228 27.3135 24.7034 27.8382 24.7034 28.4854V30.8398C24.5712 31.297 23.9273 32.9385 21.5002 32.9385C19.3484 32.9385 18.3861 30.7409 19.366 29.1893C20.7303 27.0291 21.4221 24.8998 21.4221 22.8604C21.4221 20.295 20.2814 17.5895 19.2202 15.6275L23.6297 17.0971C24.1506 17.2707 24.7224 17.0593 25.0051 16.5883L26.8801 13.4633C27.1944 12.9394 27.0535 12.2619 26.5563 11.9068L22.6518 9.11793C22.4653 6.31699 21.0338 4.78918 20.172 4.11512V2.15723C20.172 1.51004 19.6473 0.985352 19.0002 0.985352H14.0166C9.09039 0.985352 4.99961 4.90113 4.73469 9.82621C4.60875 12.1342 4.86625 13.3597 5.29133 15.225L11.7637 16.7186C12.2954 16.8412 12.672 17.3147 12.672 17.8604V24.1104C12.672 24.6561 12.2954 25.1296 11.7637 25.2523L5.17906 26.7718C4.94242 28.0996 4.70328 29.973 4.70328 32.8605C4.70328 37.3141 8.30852 40.9855 12.7502 40.9855H14.0853L12.4716 39.3661C9.5107 36.6512 10.3088 31.6307 10.3443 31.4178C10.4508 30.7794 11.0548 30.3484 11.693 30.4546C12.3305 30.5609 12.7615 31.1634 12.6565 31.8008C12.65 31.8407 12.0332 35.8044 14.0692 37.6511C14.1033 37.6819 13.8845 37.4636 17.3941 40.9855H19.0002C23.4372 40.9855 27.047 37.3407 27.047 32.8605C27.047 31.968 27.047 29.3769 27.047 28.4855C27.0471 27.8382 26.5224 27.3135 25.8752 27.3135ZM16.7291 10.2596C16.0816 10.3807 15.4827 9.9734 15.351 9.33926C15.2428 8.76441 15.5509 8.18355 16.1604 7.98926C16.8047 7.79293 17.5035 8.1816 17.6495 8.88145C17.7705 9.52801 17.3647 10.127 16.7291 10.2596Z" fill="#0D0C0C"/>
</svg>
