<svg width="40" height="41" viewBox="0 0 40 41" fill="none" xmlns="http://www.w3.org/2000/svg">
<path d="M12.8601 8.15695L18.0208 13.3177L22.2048 11.644L25.796 3.62214C24.6694 3.51509 23.5314 3.55127 22.4359 3.69388C22.4316 3.69044 22.4272 3.68684 22.423 3.68341C19.0893 4.11178 15.7105 5.62812 12.8601 8.15695Z" fill="#0D0C0C"/>
<path d="M28.171 4.05414L24.4805 12.2983L28.6829 16.5007L36.938 12.8373C35.7807 8.57598 32.5635 5.26174 28.171 4.05414Z" fill="#0D0C0C"/>
<path d="M37.9682 9.09314C38.8108 8.25038 38.7341 8.32656 38.7399 8.32219C40.4194 6.64268 40.4197 3.92389 38.7399 2.24415C37.0641 0.568398 34.3375 0.568476 32.6619 2.24415L31.8872 3.01885C34.4893 4.39829 36.5988 6.51781 37.9682 9.09314Z" fill="#0D0C0C"/>
<path d="M6.63721 22.3476L14.7002 19.1328L16.3631 14.9754L11.2019 9.81421C8.14167 13.2586 6.33808 17.7958 6.63721 22.3476Z" fill="#0D0C0C"/>
<path d="M18.6402 15.5948L16.9771 19.7529L21.2261 24.002L25.3842 22.3388L27.0475 18.1806L22.7984 13.9316L18.6402 15.5948Z" fill="#0D0C0C"/>
<path d="M26.0038 24.6158L21.8747 26.2675L18.6536 34.3459C23.2081 34.6396 27.7444 32.8039 31.1642 29.7763L26.0038 24.6158Z" fill="#0D0C0C"/>
<path d="M7.90512 5.88899C8.50166 5.99972 9.65714 6.33088 10.7385 6.92203C13.33 4.45681 16.3963 2.74253 19.549 1.87547C18.4082 1.3595 17.0785 0.985352 15.6185 0.985352C10.876 0.985352 7.51183 3.71579 7.37094 3.83198C6.60679 4.46243 6.92569 5.70716 7.90512 5.88899Z" fill="#0D0C0C"/>
<path d="M34.0581 30.2384C34.6515 31.3214 34.9839 32.48 35.0948 33.0769C35.2727 34.0558 36.5185 34.3814 37.1521 33.6131C37.2683 33.4722 39.9988 30.1081 39.9988 25.3656C39.9988 23.8982 39.635 22.5657 39.105 21.402C38.2266 24.6306 36.4956 27.6776 34.0581 30.2384Z" fill="#0D0C0C"/>
<path d="M12.0659 34.8807C11.4415 35.4648 10.6027 35.9618 9.4757 36.2654C8.60825 36.4991 8.31303 37.5876 8.95184 38.2262C10.9274 40.201 13.3644 41.3046 16.0674 40.9039C18.5424 40.5527 20.5589 38.8507 21.4987 36.6169C18.0468 36.9885 14.7797 36.3368 12.0659 34.8807Z" fill="#0D0C0C"/>
<path d="M37.3614 15.2141L29.3342 18.7764L27.6614 22.9582L32.8227 28.1195C36.2583 24.2502 37.7472 19.506 37.3614 15.2141Z" fill="#0D0C0C"/>
<path d="M4.3613 19.4884C2.21318 20.3871 0.514451 22.2781 0.0871712 24.6939C0.0691986 24.7904 0.0541172 24.8674 0.0440369 24.9719C-0.214535 27.6372 0.673236 29.9467 2.75798 32.0322C3.39383 32.6683 4.48438 32.3789 4.71872 31.5084C5.02238 30.3809 5.51968 29.5418 6.1041 28.9174C4.56556 26.0519 4.01138 22.7743 4.3613 19.4884Z" fill="#0D0C0C"/>
<path d="M16.2734 33.9858L19.5863 25.6773L15.3189 21.4099L6.99878 24.7273C7.89007 28.4084 10.2195 31.2869 13.3894 32.9193C13.3886 32.9213 13.3877 32.9233 13.3869 32.9253C14.3095 33.3976 15.256 33.7411 16.2734 33.9858Z" fill="#0D0C0C"/>
</svg>
