<svg width="2000" height="2000" viewBox="0 0 2000 2000" fill="none" xmlns="http://www.w3.org/2000/svg">
<rect width="2000" height="2000" fill="#F5EDDF"/>
<path d="M1356.94 512.271C1348.77 530.876 1405.65 558.961 1404.82 571.996C1403.99 584.913 1330.16 587.52 1329.92 616.79C1329.69 646.061 1424.25 640.728 1422.83 657.318C1421.41 673.909 1396.4 692.751 1415.48 701.757C1434.68 710.763 1480.78 677.227 1480.78 677.227C1497.37 663.48 1535.64 649.379 1544.65 618.094C1553.66 586.809 1551.41 574.485 1538.49 576.144C1525.57 577.803 1499.86 578.633 1511.47 549.718C1522.96 520.685 1522.73 509.427 1505.54 484.66C1488.36 459.893 1473.43 450.887 1465.61 466.885C1457.67 482.883 1459.45 510.257 1434.09 507.768C1408.73 505.28 1365.12 493.785 1356.94 512.271Z" fill="#EF7926"/>
<path d="M1274.23 492.719C1253.96 496.985 1252.66 518.079 1246.14 501.844C1239.62 485.609 1253.13 443.185 1241.28 428.965C1229.43 414.863 1183.22 442.237 1173.74 411.427C1164.26 380.616 1165.68 373.15 1152.64 374.098C1139.61 374.928 1132.62 359.76 1117.57 374.928C1102.52 390.096 1083.79 417.826 1088.89 434.535C1093.98 451.243 1115.55 467.004 1128.35 462.146C1141.15 457.287 1149.68 434.535 1159.99 443.778C1170.3 453.021 1139.25 464.516 1138.19 487.031C1137.12 509.665 1145.41 531.114 1143.52 548.297C1141.62 565.361 1144.11 578.041 1157.5 578.278C1170.77 578.515 1171.48 568.798 1186.65 581.715C1201.82 594.632 1212.6 599.846 1228.01 588.232C1243.42 576.619 1245.55 576.619 1257.75 582.544C1269.96 588.469 1286.67 574.249 1286.67 574.249C1300.77 563.939 1312.62 553.156 1312.86 528.152C1313.09 503.266 1294.49 488.453 1274.23 492.719Z" fill="#EF7926"/>
<path d="M1708.07 1568.25C1685.91 1558.06 1688.04 1557.58 1691.12 1545.49C1694.2 1533.41 1675.12 1534.47 1651.42 1560.66C1627.72 1586.85 1611.13 1600.6 1599.87 1584.6C1588.62 1568.6 1577.36 1546.32 1568 1546.32C1558.63 1546.32 1535.17 1578.08 1531.14 1583.65C1524.03 1593.49 1511.23 1607.35 1497.72 1614.46C1484.21 1621.69 1476.63 1630.34 1483.62 1640.65C1490.61 1650.96 1497.72 1649.9 1493.93 1664.47C1490.14 1679.05 1476.39 1698.84 1482.08 1715.78C1487.77 1732.73 1517.99 1729.53 1522.25 1736.52C1526.52 1743.51 1541.21 1759.98 1560.06 1754.06C1578.9 1748.13 1578.9 1719.81 1598.69 1716.49C1618.6 1713.06 1619.43 1693.74 1615.63 1682.96C1611.84 1672.17 1597.5 1651.08 1614.33 1639.7C1631.16 1628.33 1654.27 1633.54 1665.64 1649.42C1677.02 1665.3 1726.2 1670.16 1732.36 1638.04C1738.64 1605.81 1730.23 1578.44 1708.07 1568.25Z" fill="#EF7926"/>
<path d="M1909.16 1211.32C1905.37 1180.51 1884.63 1186.43 1865.67 1172.92C1846.71 1159.41 1797.65 1175.41 1801.92 1217.72C1806.19 1259.9 1839.49 1281.47 1871.24 1276.85C1887.36 1274.48 1912.96 1242.25 1909.16 1211.32Z" fill="#F7913C"/>
<path d="M1826.57 764.92C1846.24 738.138 1861.53 717.045 1862.59 696.188C1863.66 675.332 1828.82 675.095 1830.48 662.652C1832.14 650.209 1844.23 628.049 1832.97 616.791C1821.71 605.534 1806.19 612.881 1800.02 629.708C1793.86 646.654 1773.83 643.336 1773.24 628.168C1772.65 612.999 1745.04 611.103 1727.86 624.85C1710.67 638.596 1727.03 658.623 1713.16 671.539C1699.42 684.456 1694.91 682.797 1723 703.891C1751.2 724.984 1779.88 771.437 1779.88 771.437C1788.88 779.851 1806.9 791.701 1826.57 764.92Z" fill="#F7913C"/>
<path d="M1450.68 258.083C1461.34 266.023 1470.59 265.075 1459.8 273.607C1449.02 282.021 1443.92 296.36 1452.93 319.823C1461.94 343.168 1483.62 338.073 1502.23 322.312C1510.17 315.557 1525.93 314.965 1543.58 318.401C1561.36 321.838 1589.45 321.838 1581.27 296.715C1573.09 271.593 1554.25 266.853 1533.39 264.364C1512.54 261.876 1518.7 262.35 1515.14 246.352C1511.59 230.354 1495.12 208.075 1465.02 211.156C1434.92 214.119 1440.01 250.144 1450.68 258.083Z" fill="#F7913C"/>
<path d="M599.948 357.389C584.78 350.871 528.136 330.133 533.824 308.921C539.512 287.828 567.005 257.965 552.073 245.878C537.142 233.791 527.069 234.62 516.641 222.77C506.213 210.92 482.275 224.785 471.847 237.464C461.419 250.144 429.305 250.144 433.808 269.816C438.311 289.487 430.134 306.433 414.966 311.529C399.798 316.624 357.848 314.373 359.744 336.533C361.64 358.693 382.259 357.981 382.022 372.557C381.785 387.133 381.785 407.99 406.197 405.738C430.727 403.486 449.569 394.717 452.887 403.723C456.323 412.73 443.051 455.272 458.219 461.79C473.388 468.307 515.693 457.761 521.263 429.201C526.951 400.642 548.044 395.31 548.044 395.31C567.716 389.148 572.219 402.301 593.431 393.651C614.643 385 615.235 363.907 599.948 357.389Z" fill="#EF7926"/>
<path d="M507.636 1596.57C475.521 1582.59 452.769 1588.51 446.014 1623.59C443.763 1635.32 431.201 1633.78 403.353 1634.13C375.505 1634.61 355.241 1649.78 366.144 1675.14C377.164 1700.5 424.684 1693.74 427.883 1712.7C431.083 1731.66 451.465 1785.82 484.409 1791.27C517.353 1796.72 523.278 1741.38 546.978 1720.76C570.679 1700.14 548.637 1675.97 534.773 1649.42C520.789 1622.76 539.75 1610.55 507.636 1596.57Z" fill="#EF7926"/>
<path d="M984.489 1689.12C961.263 1685.33 954.034 1713.65 943.487 1692.08C932.941 1670.51 962.092 1673.95 956.167 1653.69C950.242 1633.42 918.128 1567.54 901.656 1566.71C885.184 1565.88 840.39 1599.18 835.295 1622.88C830.199 1646.58 830.673 1677.39 850.108 1689.24C869.542 1701.09 864.446 1708.67 866.579 1729.77C868.712 1750.86 891.109 1751.69 908.766 1741.62C926.423 1731.54 933.652 1731.07 940.051 1724.31C946.332 1717.56 959.485 1741.62 993.733 1732.96C1027.98 1724.08 1007.72 1692.91 984.489 1689.12Z" fill="#F7913C"/>
<path d="M1466.68 1509.94C1457.43 1510.42 1437.52 1537.2 1442.38 1554.5C1447.24 1571.8 1459.68 1576.07 1465.85 1573.46C1477.22 1568.72 1495.83 1543.36 1496.3 1534.47C1496.78 1525.59 1475.92 1509.59 1466.68 1509.94Z" fill="#F7913C"/>
<path d="M1719.92 1528.31C1718.49 1531.87 1717.9 1534.95 1717.9 1537.67C1717.9 1548.93 1729.16 1556.4 1739.59 1552.13C1746.34 1549.29 1752.03 1541.82 1752.86 1529.26C1754.28 1506.39 1725.84 1514.21 1719.92 1528.31Z" fill="#F7913C"/>
<path d="M1797.65 579.699C1805.95 569.982 1797.18 557.776 1782.6 556.236C1778.93 555.88 1760.8 565.953 1757.24 575.907C1753.69 585.861 1789.36 589.416 1797.65 579.699Z" fill="#F7913C"/>
<path d="M285.68 1539.33C267.193 1544.55 241.36 1547.98 246.218 1568.01C251.077 1588.04 265.653 1580.45 265.653 1591.47C265.653 1602.49 273.711 1614.7 302.626 1606.29C331.54 1597.87 332.251 1579.5 322.652 1560.19C313.054 1540.87 304.403 1534.12 285.68 1539.33Z" fill="#F7913C"/>
<path d="M851.176 428.963C838.259 426.474 795.954 425.289 793.465 392.345C790.976 359.402 746.183 327.288 723.075 323.969C699.967 320.651 656.002 345.892 646.166 396.374C636.331 446.738 666.667 460.247 678.281 490.11C689.775 519.973 692.382 540 710.158 534.074C727.933 528.149 725.089 514.877 751.278 519.736C777.467 524.476 791.569 518.077 799.983 509.9C815.388 494.969 828.66 476.719 845.014 457.759C861.367 438.798 864.092 431.451 851.176 428.963Z" fill="#EF7926"/>
<path d="M1401.03 1732.85C1388.35 1726.33 1374.25 1732.37 1369.98 1741.73C1365.71 1750.98 1361.92 1757.97 1352.92 1748.49C1343.91 1739.01 1328.39 1741.26 1317.25 1754.65C1306.11 1767.92 1303.14 1773.49 1303.26 1778.35C1303.5 1783.21 1311.56 1782.14 1316.77 1786.76C1320.45 1789.96 1319.97 1797.55 1312.15 1804.07C1304.33 1810.58 1303.26 1823.74 1310.85 1835.35C1318.43 1846.96 1332.77 1860.95 1360.5 1848.39C1388.11 1835.82 1426.62 1808.09 1430.77 1795.89C1435.04 1783.45 1413.71 1739.36 1401.03 1732.85Z" fill="#F7913C"/>
<path d="M1817.44 1322.83C1797.53 1333.02 1802.27 1357.43 1804.76 1375.68C1807.25 1393.81 1795.05 1412.06 1797.18 1437.3C1799.31 1462.66 1818.15 1460.65 1825.03 1452.94C1834.63 1442.28 1849.08 1426.75 1847.42 1413.72C1845.77 1400.68 1847.42 1393.81 1863.07 1381.25C1878.71 1368.57 1886.29 1352.1 1879.06 1338.59C1871.95 1324.96 1837.35 1312.76 1817.44 1322.83Z" fill="#F7913C"/>
<path d="M1802.87 865.409C1816.14 877.259 1822.42 866.713 1829.06 861.854C1836.52 856.284 1852.28 856.166 1853.11 837.561C1853.94 818.956 1829.89 807.106 1809.86 818.364C1789.83 829.503 1789.6 853.559 1802.87 865.409Z" fill="#F7913C"/>
<path d="M1425.91 450.887C1440.72 444.962 1461.34 425.883 1459.69 407.278C1458.03 388.673 1441.44 380.852 1424.49 386.422C1407.54 392.11 1384.55 412.611 1388.11 422.447C1391.66 432.282 1405.65 459.064 1425.91 450.887Z" fill="#F7913C"/>
<path d="M1329.93 431.689C1341.42 438.918 1348.89 430.859 1348.89 430.859C1357.54 420.668 1371.05 408.699 1368.08 393.887C1365.12 379.074 1350.19 378.244 1335.38 393.887C1320.56 409.529 1318.31 424.46 1329.93 431.689Z" fill="#F7913C"/>
<path d="M262.456 522.226C275.136 533.247 277.032 552.444 293.029 539.764C300.021 534.195 310.805 521.989 308.672 507.413C306.539 492.837 295.399 494.496 297.059 475.773C298.718 456.931 294.688 448.162 279.994 450.413C265.181 452.783 226.55 474.706 223.587 504.214C220.624 533.721 249.776 511.205 262.456 522.226Z" fill="#F7913C"/>
<path d="M324.075 1034.99C318.15 1031.91 312.935 1048.26 303.218 1056.91C291.961 1066.98 277.859 1076.58 280.11 1086.54C282.362 1096.37 295.871 1103.96 309.973 1096.73C324.075 1089.38 339.243 1084.05 341.258 1071.96C343.154 1059.75 330 1038.07 324.075 1034.99Z" fill="#F7913C"/>
<path d="M257.597 1122.2C251.435 1108.46 233.422 1122.44 227.142 1122.2C220.861 1121.97 222.046 1112.01 229.156 1105.85C229.156 1105.85 238.755 1090.92 229.749 1075.4C220.742 1059.87 200.123 1047.19 177.134 1049.8C154.026 1052.29 143.953 1077.41 153.433 1102.77C162.913 1128.13 191.472 1128.37 204.389 1129.2C217.306 1130.02 189.458 1150.64 204.389 1154.55C219.32 1158.58 263.759 1136.07 257.597 1122.2Z" fill="#F7913C"/>
<path d="M164.689 926.082C181.991 918.024 190.76 891.005 192.182 875.6C194.908 844.789 183.768 823.696 158.764 824.526C133.879 825.355 109.941 849.648 102.594 874.415C95.2469 899.182 118.473 912.454 132.575 915.18C146.677 917.787 147.388 934.022 164.689 926.082Z" fill="#F7913C"/>
<path d="M395.296 1384.09C398.259 1399.26 413.427 1385.75 433.336 1392.98C453.244 1400.21 460.828 1386.23 455.258 1369.28C449.689 1352.34 423.144 1349.61 410.939 1353.88C410.939 1353.99 392.334 1368.93 395.296 1384.09Z" fill="#F7913C"/>
<path d="M439.615 1318.21C440.089 1312.28 412.597 1231.23 410.938 1226.6C410.938 1226.6 411.767 1304.7 416.033 1314.89C420.299 1325.08 439.26 1324.13 439.615 1318.21Z" fill="#F7913C"/>
<path d="M1399.13 1568.6C1382.18 1564.81 1369.38 1572.51 1355.87 1576.42C1352.44 1578.79 1349.12 1581.16 1346.04 1584.01C1340.35 1589.34 1336.2 1594.2 1332.77 1601.07C1331.94 1602.73 1330.87 1604.15 1329.69 1605.22C1323.64 1619.2 1288.21 1633.07 1305.04 1656.3C1307.29 1659.38 1315.23 1671.46 1327.32 1670.99C1339.4 1670.4 1335.73 1661.39 1348.76 1670.16C1361.8 1678.93 1388.7 1664.24 1411.33 1641.48C1433.85 1618.37 1420.58 1573.34 1399.13 1568.6Z" fill="#339EBD"/>
<path d="M640.83 220.045C629.572 227.392 640.593 247.063 625.898 244.575C611.204 242.086 607.293 215.897 595.443 222.296C583.593 228.814 608.123 238.531 607.293 257.728C606.464 276.926 613.811 308.447 625.898 297.545C634.431 289.842 626.491 284.036 648.177 282.021C669.863 280.007 685.861 259.506 681.95 242.56C678.039 225.614 652.087 212.697 640.83 220.045Z" fill="#339EBD"/>
<path d="M318.148 811.373C335.568 786.369 325.732 772.267 342.915 767.171C360.098 762.076 367.682 749.396 360.098 737.546C352.514 725.696 335.331 715.623 331.895 684.575C328.458 653.646 291.604 608.26 278.687 599.846C265.77 591.432 244.914 599.846 244.914 599.846C235.671 606.363 207.23 619.28 202.371 637.885C197.513 656.49 217.303 676.754 207.704 692.752C198.105 708.75 152.245 683.746 129.137 715.267C106.029 746.789 134.469 788.739 171.679 791.346C208.889 793.953 236.145 789.331 238.989 803.196C241.833 816.942 212.563 820.616 216.236 835.547C219.91 850.479 239.581 865.41 264.348 858.063C289.115 850.716 300.728 836.377 318.148 811.373Z" fill="#339EBD"/>
<path d="M1785.21 1107.87C1770.51 1118.06 1757.48 1128.96 1762.1 1139.39C1766.6 1149.82 1776.8 1163.32 1790.3 1157.99C1805.35 1152.07 1819.34 1130.14 1814.83 1117.46C1810.33 1104.78 1799.9 1097.79 1785.21 1107.87Z" fill="#339EBD"/>
<path d="M914.099 448.517C927.135 427.424 920.024 410.359 911.848 413.914C892.769 422.328 868.357 431.216 870.846 456.575C873.453 481.935 901.064 469.61 914.099 448.517Z" fill="#339EBD"/>
<path d="M890.042 602.927C871.2 586.929 829.606 552.089 822.496 550.667C813.253 548.652 827.236 606.126 832.332 609.207C836.242 611.577 868.593 610.866 887.198 610.748C891.227 610.629 893.123 605.534 890.042 602.927Z" fill="#339EBD"/>
<path d="M766.328 591.076C746.419 586.81 785.999 561.925 769.764 558.37C753.529 554.815 693.686 631.604 704.706 632.315C715.727 633.026 785.051 606.6 788.606 603.401C796.19 596.172 786.236 595.343 766.328 591.076Z" fill="#339EBD"/>
<path d="M669.391 603.519C652.446 584.085 673.183 565.954 644.269 562.991C615.354 560.029 561.673 607.311 553.259 630.538C544.845 653.764 584.07 695.596 604.334 683.39C621.516 672.962 646.52 652.342 668.443 643.455C677.45 639.781 682.308 629.708 679.227 620.347C677.568 615.251 674.606 609.563 669.391 603.519Z" fill="#339EBD"/>
<path d="M398.967 918.142C401.811 892.19 351.685 869.201 339.834 870.504C327.984 871.926 291.722 910.676 293.619 925.134C295.633 939.472 331.065 984.859 345.404 979.763C354.055 976.682 396.123 943.976 398.967 918.142Z" fill="#339EBD"/>
<path d="M602.2 523.766C615.709 523.529 641.898 516.775 646.52 500.184C651.142 483.594 635.499 475.18 604.333 482.409C573.167 489.519 581.107 524.122 602.2 523.766Z" fill="#339EBD"/>
<path d="M998.829 1787.12C966.715 1775.27 922.75 1763.3 908.411 1771.48C877.719 1789.02 877.601 1793.88 877.127 1811.18C876.89 1819.12 878.312 1827.41 881.748 1835.59C885.777 1845.07 892.414 1854.19 902.486 1861.9C921.091 1876.24 997.525 1870.31 1010.56 1844.6C1010.8 1844.24 1010.92 1843.77 1011.15 1843.41C1023.95 1818.17 1030.47 1798.74 998.829 1787.12Z" fill="#339EBD"/>
<path d="M327.747 459.775C337.702 465.464 350.5 457.879 350.5 457.879C361.047 448.755 386.999 426.832 381.073 411.189C375.148 395.547 350.026 380.379 326.562 389.385C303.099 398.51 319.215 407.16 322.296 422.21C325.614 437.378 317.793 453.969 327.747 459.775Z" fill="#339EBD"/>
<path d="M139.329 1160.72C124.16 1169.96 113.614 1192 121.198 1215.23C128.782 1238.46 142.765 1251.14 156.63 1265.12C170.613 1279.1 185.782 1260.85 185.782 1260.85C203.913 1239.29 213.63 1208.47 200.95 1189.51C188.27 1170.44 154.497 1151.36 139.329 1160.72Z" fill="#339EBD"/>
<path d="M1840.43 909.019C1821.83 914.114 1805.47 898.59 1800.5 920.276C1795.4 941.962 1787.82 980.831 1803.34 996.355C1818.86 1011.88 1850.39 1003.11 1850.39 1003.11C1859.98 1000.27 1882.26 993.274 1885.58 954.405C1888.9 915.536 1859.04 904.042 1840.43 909.019Z" fill="#339EBD"/>
<path d="M1339.76 308.33C1349.48 317.218 1358.36 372.084 1374.84 363.671C1391.31 355.257 1425.08 285.933 1417.97 260.573C1410.74 235.214 1373.65 235.214 1374.84 214.476C1376.02 193.738 1390 151.907 1365.95 139.701C1341.89 127.495 1314.87 141.36 1283.11 176.437C1251.36 211.513 1246.73 215.306 1221.49 214.832C1196.13 214.358 1157.74 264.247 1168.29 292.925C1178.83 321.602 1213.08 284.037 1234.65 268.039C1256.21 252.041 1279.44 261.285 1279.44 298.85C1279.44 336.415 1292.71 340.089 1307.29 325.513C1315.47 317.336 1330.04 299.442 1339.76 308.33Z" fill="#339EBD"/>
<path d="M1053.34 481.344C1039.35 468.901 1049.43 444.726 1001.08 440.934C952.846 437.142 927.013 460.843 925.354 481.344C923.695 501.844 946.092 514.524 934.241 525.071C922.391 535.618 903.431 562.281 921.562 585.033C939.693 607.786 977.258 602.809 977.258 602.809C993.73 601.15 1004.75 593.565 1020.75 582.071C1036.75 570.694 1052.03 587.996 1061.28 566.428C1070.52 544.861 1064.24 533.011 1074.31 510.732C1084.62 488.217 1067.32 493.786 1053.34 481.344Z" fill="#339EBD"/>
<path d="M1206.56 127.139C1211.06 102.964 1187.72 83.5301 1171.36 86.2556C1155.01 89.0997 1167.69 104.031 1149.92 105.927C1132.14 107.942 1109.03 103.083 1113.89 119.199C1118.75 135.316 1119.93 139.463 1127.64 154.395C1148.02 193.5 1202.06 151.314 1206.56 127.139Z" fill="#339EBD"/>
<path d="M574.946 1762.59C561.199 1762 553.497 1769.94 553.497 1769.94C543.305 1775.86 539.158 1793.05 551.245 1805.96C563.332 1818.88 563.332 1806.2 573.761 1790.44C584.189 1774.68 588.692 1763.18 574.946 1762.59Z" fill="#339EBD"/>
<path d="M457.982 1452.95C445.894 1431.14 422.549 1421.31 412.951 1434.34C403.47 1447.38 406.433 1490.27 386.762 1493.24C367.09 1496.2 345.167 1491.34 353.581 1530.45C359.032 1555.81 364.365 1577.73 378.111 1575.6C391.857 1573.46 387.236 1527.6 408.566 1537.56C429.897 1547.51 449.094 1561.61 469.121 1534.59C489.148 1507.58 503.368 1491.46 503.961 1477.36C504.672 1463.37 470.069 1474.75 457.982 1452.95Z" fill="#339EBD"/>
<path d="M956.05 328.118C953.68 314.609 939.104 327.881 931.165 337.006C925.003 343.997 920.381 364.854 933.535 365.328C946.452 365.802 958.302 341.627 956.05 328.118Z" fill="#F8B212"/>
<path d="M1271.86 1703.46C1265.93 1702.04 1247.68 1725.38 1248.16 1734.39C1248.63 1743.39 1273.75 1765.67 1285.37 1756.07C1293.43 1749.44 1305.39 1735.81 1305.04 1730C1304.68 1724.2 1277.78 1704.88 1271.86 1703.46Z" fill="#F8B212"/>
<path d="M1777.39 1056.32C1774.31 1057.62 1754.99 1089.85 1746.34 1104.43C1742.79 1110.35 1748.83 1117.46 1755.23 1114.74C1758.43 1113.43 1762.34 1111.18 1767.2 1107.51C1790.54 1090.33 1801.56 1106.09 1817.56 1106.92C1833.56 1107.75 1846.24 1098.98 1842.92 1088.67C1839.6 1078.36 1781.3 1054.66 1777.39 1056.32Z" fill="#F8B212"/>
<path d="M231.169 977.157C252.973 975.735 264.705 950.731 251.196 928.216C237.687 905.7 223.94 907.241 216.119 910.44C203.202 915.655 184.479 935.326 188.627 951.205C193.011 966.966 209.483 978.579 231.169 977.157Z" fill="#F8B212"/>
<path d="M406.671 651.274C400.39 641.557 358.559 647.008 373.253 667.746C378.823 675.567 383.918 687.655 395.531 682.914C407.145 678.174 413.07 660.991 406.671 651.274Z" fill="#F8B212"/>
<path d="M149.757 1007.97C157.816 995.879 159.712 955.114 132.101 951.796C104.49 948.36 62.7767 961.987 71.0718 1005C72.4939 1012.47 80.789 1020.17 89.2027 1017.92C97.6164 1015.55 97.0239 1001.69 111.007 1011.76C124.99 1021.95 141.699 1020.05 149.757 1007.97Z" fill="#F8B212"/>
<path d="M425.276 624.256C455.494 649.615 492.704 648.549 492.704 648.549C516.76 643.098 527.07 634.21 532.402 606.718C537.735 579.225 545.438 570.219 549.467 553.865C553.496 537.631 542.238 509.308 509.294 502.791C476.351 496.273 463.908 517.13 454.191 531.468C444.473 545.807 430.727 544.504 421.721 532.298C412.596 520.092 406.316 496.984 394.702 500.421C383.089 503.857 373.135 512.864 377.756 532.298C382.378 551.851 395.058 598.896 425.276 624.256Z" fill="#F8B212"/>
<path d="M1376.61 1434.81C1359.43 1440.98 1355.52 1433.63 1357.77 1418.22C1360.02 1402.7 1345.69 1392.63 1325.07 1398.2C1304.56 1403.89 1300.3 1420.48 1299.47 1448.56C1299.11 1460.88 1291.41 1487.55 1294.97 1505.44C1296.39 1512.55 1299.59 1518.24 1305.75 1521.2C1308.83 1522.74 1312.39 1522.74 1315.7 1523.57C1323.17 1525.47 1328.74 1531.16 1335.73 1533.88C1343.55 1536.84 1352.56 1536.49 1360.62 1535.42C1376.26 1533.41 1393.09 1526.54 1403.63 1514.45C1417.14 1498.92 1418.8 1467.99 1410.62 1459.23C1402.45 1450.46 1393.8 1428.65 1376.61 1434.81Z" fill="#F8B212"/>
<path d="M1893.88 1016.62C1885.35 1026.33 1871.48 1046.84 1873.14 1054.18C1874.8 1061.53 1897.2 1084.16 1904.19 1085.7C1911.18 1087.24 1927.65 1049.68 1929.9 1040.2C1932.39 1030.84 1913.08 994.931 1893.88 1016.62Z" fill="#F8B212"/>
<path d="M1732.59 511.68C1719.09 503.858 1706.64 487.861 1720.98 480.039C1735.32 472.218 1743.73 456.22 1736.62 444.133C1729.4 432.046 1729.28 408.701 1712.92 402.539C1696.69 396.377 1695.62 411.19 1682.35 406.331C1669.08 401.472 1653.79 393.296 1637.79 402.776C1621.8 412.256 1625.35 433.231 1630.45 449.821C1635.54 466.53 1623.45 493.904 1605.92 493.312C1588.38 492.719 1574.87 481.935 1573.21 496.748C1571.55 511.561 1594.07 537.75 1627.01 530.285C1659.95 522.937 1661.61 512.509 1670.97 521.634C1680.22 530.759 1684.01 547.349 1702.61 540.594C1704.39 539.883 1710.43 530.64 1725.48 528.507C1740.53 526.374 1746.1 519.501 1732.59 511.68Z" fill="#F8B212"/>
<path d="M1626.54 377.179C1626.54 337.955 1573.33 345.539 1545.01 358.574C1516.68 371.609 1502.82 392.821 1516.33 413.915C1529.84 435.008 1561.12 435.838 1561.12 435.838C1584.35 435.838 1626.54 416.403 1626.54 377.179Z" fill="#F8B212"/>
<path d="M1074.43 204.876C1087.94 177.383 1080.83 152.498 1067.68 138.989C1054.53 125.479 1065.07 154.631 1037.22 151.668C1009.38 148.706 1025.02 103.556 995.037 94.6688C965.056 85.7811 943.489 99.7644 934.245 112.8C925.002 125.835 894.547 145.743 905.094 172.406C915.64 199.069 937.563 199.069 937.208 216.726C936.734 234.502 953.68 274.2 1020.04 260.217C1032.25 257.61 1036.04 251.329 1066.97 263.653C1097.78 275.859 1121.48 262.35 1114.25 242.086C1107.02 221.703 1060.92 232.25 1074.43 204.876Z" fill="#F8B212"/>
<path d="M486.187 703.535C427.054 705.194 386.526 771.082 397.192 793.123C407.857 815.046 453.48 831.992 473.27 822.986C492.942 813.98 531.455 772.978 546.505 754.847C560.014 738.375 545.32 701.876 486.187 703.535Z" fill="#F8B212"/>
<path d="M285.443 1383.74C262.216 1375.32 273.593 1345.7 266.838 1328.87C260.083 1311.93 236.027 1324.61 221.215 1341.91C207.587 1357.79 201.899 1354.11 188.626 1344.51C186.019 1342.62 182.938 1341.2 179.857 1340.25C170.022 1337.52 148.81 1333.26 140.159 1343.33C128.783 1356.72 118.236 1385.75 150.35 1412.3C182.464 1438.84 161.726 1441.92 156.631 1470.13C151.535 1498.33 216.593 1524.16 259.846 1520.02C303.1 1515.75 334.859 1422.84 334.859 1403.88C334.859 1384.92 308.669 1392.15 285.443 1383.74Z" fill="#F8B212"/>
<path d="M521.145 1544.9C524.937 1567.77 529.914 1593.13 548.4 1589.58C566.887 1586.02 575.656 1567.42 561.08 1540.99C546.504 1514.57 517.471 1522.98 521.145 1544.9Z" fill="#F8B212"/>
<path d="M997.169 1541.23C965.055 1537.79 939.695 1548.81 958.3 1572.87C967.306 1584.6 977.142 1602.49 1001.08 1594.79C1025.02 1587.33 1029.28 1544.66 997.169 1541.23Z" fill="#F8B212"/>
<path d="M1081.66 312.951C1064.36 311.292 1010.32 311.647 997.999 324.327C985.794 337.007 966.715 383.46 974.773 395.31C982.831 407.16 1034.74 383.46 1055 398.272C1067.68 407.516 1051.56 371.609 1071.94 352.175C1092.21 332.859 1098.96 314.61 1081.66 312.951Z" fill="#F8B212"/>
<path d="M338.178 1243.55C345.525 1215.35 357.376 1201.36 321.825 1194.61C286.393 1187.86 266.603 1213.81 266.603 1213.81C256.411 1229.57 247.405 1245.33 262.692 1257.77C277.86 1270.21 311.397 1258.36 310.686 1293.2C309.975 1328.16 307.723 1354 329.764 1354C351.687 1354 371.951 1341.08 362.471 1311.81C352.991 1282.54 330.831 1271.76 338.178 1243.55Z" fill="#EEE1C3"/>
<path d="M1688.4 569.154C1683.89 556.237 1655.45 544.387 1625.83 552.208C1596.2 560.148 1600.47 596.173 1608.64 607.904C1616.82 619.755 1624.64 616.318 1623.58 631.842C1622.51 647.366 1630.09 660.282 1645.85 652.106C1652.25 648.788 1653.2 636.582 1664.46 616.673C1675.72 596.765 1692.9 582.189 1688.4 569.154Z" fill="#EEE1C3"/>
<path d="M1260.84 1862.73C1261.08 1879.79 1255.74 1893.18 1236.07 1901.36C1229.79 1903.97 1222.09 1905.98 1212.73 1907.52C1208.82 1908.11 1204.55 1908.71 1199.93 1909.18C1184.88 1910.6 1168.29 1911.31 1151.7 1911.43C1137.6 1911.55 1123.38 1911.43 1110.1 1910.96C1093.28 1910.48 1077.87 1909.65 1065.78 1908.94C1061.28 1908.71 1057.13 1908.35 1053.7 1908.11C1043.86 1907.4 1035.56 1900.41 1033.55 1890.81C1030.82 1877.66 1031.42 1862.13 1033.91 1844.83C1026.32 1844.36 1018.86 1843.77 1011.39 1843.29C1011.15 1843.65 1011.03 1844.12 1010.8 1844.48C997.763 1870.19 921.21 1876.12 902.724 1861.78C892.651 1854.08 886.015 1844.95 881.986 1835.47C872.387 1835 863.025 1834.52 854.019 1834.05C854.375 1836.3 854.73 1838.32 854.967 1840.33C856.034 1851.47 853.545 1859.17 847.383 1864.51C844.302 1867.11 840.391 1869.25 835.651 1870.79C830.793 1872.44 824.986 1873.63 818.35 1874.46C811.595 1875.41 803.892 1875.88 795.242 1876.36C794.294 1876.36 793.464 1876.47 792.516 1876.47C783.036 1876.83 772.371 1877.07 760.758 1877.3C758.98 1877.3 757.084 1877.42 755.188 1877.42C743.101 1877.66 729.947 1877.9 715.608 1878.37C707.787 1878.61 700.44 1878.73 693.685 1878.61C686.22 1878.49 679.346 1878.25 673.066 1877.66C632.656 1874.46 616.185 1863.79 612.629 1852.77C611.207 1848.15 611.918 1843.53 614.289 1839.38C614.407 1839.03 614.644 1838.79 614.763 1838.32C586.44 1841.52 565.939 1846.49 565.939 1854.79C565.939 1892 973.351 1916.53 1127.76 1919.02C1282.17 1921.5 1339.17 1885.12 1341.78 1874.22C1342.25 1871.62 1310.37 1867.47 1260.84 1862.73Z" fill="#EEE1C3"/>
<path d="M859.47 371.018C862.432 393.652 893.243 395.074 912.915 383.46C912.915 383.46 921.565 371.018 905.686 354.546C889.925 338.074 856.507 348.384 859.47 371.018Z" fill="#EEE1C3"/>
<path d="M745.353 281.667C763.958 293.517 802.234 289.607 830.912 307.027C859.589 324.446 857.93 336.889 882.697 304.183C907.464 271.476 917.656 252.989 905.213 239.362C892.77 225.734 894.192 249.553 870.729 243.865C841.577 236.873 831.504 229.763 846.08 204.403C860.774 179.044 879.853 166.72 864.092 158.78C848.332 150.84 844.895 165.535 819.299 158.78C793.702 152.025 789.791 160.439 774.505 150.366C759.336 140.175 757.085 127.851 733.384 139.109C709.684 150.366 707.432 189.235 723.193 220.164C738.954 251.093 726.748 269.817 745.353 281.667Z" fill="#EEE1C3"/>
<path d="M723.072 708.276C573.877 750.7 565.819 942.437 603.977 1027.64C657.896 1148.28 747.721 1205.04 781.494 1262.39C788.485 1274.24 804.246 1277.44 815.385 1269.39C845.248 1247.94 892.294 1204.68 889.449 1145.08C887.672 1108.93 877.836 1057.62 875.348 1002.28C875.229 999.437 875.111 996.711 875.111 993.867C874.992 989.127 874.874 984.268 874.874 979.528C874.874 939.593 879.614 899.183 894.071 861.737C897.626 852.612 901.537 843.369 906.395 834.955C919.549 812.321 935.784 792.531 954.152 774.4C932.229 755.084 833.872 676.873 723.072 708.276Z" fill="#E7741E"/>
<path d="M1634.12 726.051C1553.65 719.178 1495.59 759.587 1466.67 786.132C1474.02 797.627 1480.89 809.714 1487.29 822.038C1516.21 878.564 1532.68 940.896 1532.21 993.037C1531.61 1058.57 1510.05 1091.39 1497.13 1110.95C1493.81 1115.92 1489.31 1122.8 1489.19 1125.05C1493.46 1137.97 1525.1 1189.16 1565.86 1240.47C1621.08 1205.39 1717.31 1125.52 1752.5 1013.78C1798.01 869.202 1752.38 736.124 1634.12 726.051Z" fill="#E7741E"/>
<path d="M1654.86 718.703C1518.58 676.517 1439.18 755.321 1439.18 755.321L1451.62 770.015C1545 689.433 1654.86 718.703 1654.86 718.703Z" fill="#28759E"/>
<path d="M1761.27 1356.25C1755.11 1297.71 1706.05 1283.01 1685.19 1299.96C1664.34 1316.9 1660.43 1361.93 1695.86 1372.01C1695.86 1372.01 1676.66 1388.95 1607.46 1324.72C1538.25 1260.5 1467.74 1152.42 1460.51 1129.91C1453.17 1107.39 1501.87 1090.21 1502.82 993.036C1503.65 895.864 1443.68 756.505 1332.17 683.034C1220.66 609.562 1042.79 619.279 963.039 658.504C963.039 658.504 822.85 614.539 701.978 662.77C581.224 710.882 546.147 797.981 546.147 797.981C546.147 797.981 394.819 905.226 362.942 1102.41C360.809 1115.33 359.268 1128.48 358.32 1142.11C355.239 1174.23 353.58 1213.33 361.164 1238.81C372.541 1276.85 382.495 1260.02 384.865 1190.11C389.724 1142.47 405.01 1047.78 452.411 1006.9C452.411 1006.9 395.412 1148.87 462.603 1280.64C529.794 1412.42 599.473 1535.3 612.153 1622.76C624.596 1708.67 623.647 1818.52 614.76 1838.43C614.641 1838.79 614.404 1839.14 614.286 1839.38C612.034 1843.53 611.205 1848.15 612.627 1852.77C618.196 1847.2 629.691 1838.55 646.045 1841.04C666.427 1844.24 677.685 1861.19 673.063 1877.54C679.344 1878.01 686.217 1878.37 693.683 1878.49C694.749 1871.61 698.304 1855.02 710.273 1849.45C724.73 1842.82 751.156 1846.02 755.185 1877.18C757.081 1877.18 758.977 1877.06 760.755 1877.06C759.451 1870.9 758.148 1861.07 760.755 1853.96C764.547 1843.29 791.803 1838.55 792.632 1876.35C793.58 1876.35 794.528 1876.24 795.358 1876.24C795.121 1863.91 795.002 1848.51 806.971 1841.87C815.029 1837.37 825.576 1836.77 833.752 1841.28C842.166 1846.02 846.077 1855.14 847.617 1864.27C853.779 1858.93 856.268 1851.23 855.201 1840.09C854.964 1838.08 854.727 1836.06 854.253 1833.81C845.958 1788.78 796.424 1697.06 788.485 1622.05C786.47 1603.8 786.47 1585.31 787.536 1566.94C788.129 1557.82 790.025 1548.46 795.595 1541.35C802.112 1533.17 812.659 1529.02 822.969 1527.48C834.937 1525.71 847.38 1526.3 859.467 1526.18C872.147 1526.06 884.827 1525.11 897.507 1524.28C924.762 1522.62 952.255 1521.08 979.274 1517.29C1027.39 1510.54 1039.24 1521.56 1045.16 1550.23C1051.09 1578.91 1058.67 1716.61 1047.65 1773.26C1042.67 1799.21 1036.98 1823.26 1034.02 1844.6C1031.65 1861.9 1030.94 1877.42 1033.67 1890.57C1035.68 1900.17 1044.09 1907.16 1053.81 1907.88C1057.37 1908.11 1061.4 1908.35 1065.9 1908.7C1061.4 1880.74 1086.64 1879.08 1097.07 1883.94C1104.65 1887.49 1108.56 1902.31 1110.22 1910.72C1123.49 1911.08 1137.71 1911.31 1151.81 1911.19C1147.9 1905.03 1143.87 1896.5 1146.72 1890.46C1151.46 1880.03 1179.07 1869.36 1190.92 1875.52C1199.45 1880.03 1208.46 1897.8 1212.84 1907.28C1222.2 1905.74 1229.91 1903.61 1236.19 1901.12C1231.21 1896.03 1218.77 1882.52 1217.11 1872.44C1216.52 1868.65 1218.53 1863.56 1222.32 1858.93C1230.38 1849.1 1246.38 1841.75 1260.6 1855.97C1260.12 1850.05 1259.06 1843.77 1257.87 1837.13C1251.12 1798.73 1218.65 1768.28 1222.44 1713.41C1226.23 1658.55 1276.48 1426.52 1271.97 1337.52C1271.97 1337.52 1328.86 1367.03 1393.08 1416.09C1457.31 1465.15 1556.14 1524.16 1647.39 1508.17C1738.52 1492.29 1767.43 1414.79 1761.27 1356.25ZM1440.01 1012.47C1453.52 996.473 1485.4 1003.35 1489.43 1029.42C1493.46 1055.49 1473.43 1072.08 1445.7 1060.23C1431.12 1053.95 1426.5 1028.47 1440.01 1012.47ZM1046.94 704.009C1025.85 716.333 1005.82 730.079 986.858 745.248C975.481 754.491 964.461 764.089 954.151 774.281C935.902 792.293 919.548 812.201 906.395 834.835C901.536 843.249 897.507 852.492 894.07 861.617C879.613 899.064 874.873 939.473 874.873 979.408C874.873 984.149 874.991 989.007 875.11 993.747C875.228 996.591 875.228 999.435 875.347 1002.16C879.02 1031.08 885.064 1062.72 894.426 1091.75C920.378 1171.15 925.236 1261.33 809.578 1332.66C798.913 1339.3 785.048 1337.76 775.923 1329.23C767.865 1321.64 756.726 1309.56 741.439 1290.24C700.911 1238.69 661.213 1204.92 591.059 1128.01C520.906 1051.1 488.318 804.262 647.23 700.572C791.566 606.481 948.581 719.414 950.359 720.599C952.136 721.429 954.033 721.784 955.929 721.784C958.536 721.784 961.024 721.073 963.276 719.532C999.182 695.832 1035.68 680.427 1067.44 670.354C1089.36 663.481 1108.92 659.215 1124.79 656.489C1130.01 655.541 1132.26 662.888 1127.4 665.021C1102.4 676.398 1067.08 692.277 1046.94 704.009ZM1062.34 1050.98C1044.92 1027.28 1057.01 1011.05 1072.18 998.013C1072.18 998.013 1091.02 980.238 1114.13 996.591C1137.24 1012.94 1147.9 1052.29 1131.9 1067.22C1115.91 1082.27 1079.88 1074.68 1062.34 1050.98ZM1677.96 1401.87C1672.16 1425.93 1652.01 1444.18 1629.26 1452.35C1609.94 1459.58 1588.73 1461.12 1568.23 1459.46C1533.98 1457.57 1502.7 1442.63 1473.19 1427.11C1427.57 1402.34 1384.91 1372.6 1343.43 1341.55C1342.96 1341.2 1342.48 1340.84 1342.13 1340.49C1339.05 1338.23 1336.08 1335.86 1333 1333.49C1292.24 1302.33 1252.66 1269.62 1214.38 1235.49C1214.38 1235.49 1214.26 1235.37 1214.03 1235.26C1210.95 1232.65 1186.18 1211.32 1177.05 1207.41C1169.23 1203.97 1163.31 1207.64 1147.78 1210.96C1143.99 1211.79 1139.61 1212.5 1134.51 1213.21C1131.19 1213.57 1127.99 1213.81 1124.79 1213.69C1124.56 1213.69 1124.2 1213.69 1123.97 1213.69C1123.49 1213.69 1123.02 1213.69 1122.66 1213.69C1122.19 1213.69 1121.71 1213.69 1121.24 1213.57C1118.75 1213.45 1116.38 1213.1 1114.01 1212.74C1113.66 1212.74 1113.42 1212.62 1113.06 1212.62C1110.57 1212.27 1108.2 1211.67 1105.95 1211.2C1105.48 1211.08 1105 1210.96 1104.53 1210.84C1103.94 1210.73 1103.35 1210.49 1102.87 1210.37C1102.87 1210.37 1102.87 1210.37 1102.75 1210.37C1098.96 1209.18 1099.44 1203.62 1103.46 1203.14H1103.58C1107.85 1202.67 1112.11 1201.96 1116.38 1201.01C1121 1200.06 1125.51 1198.88 1130.01 1197.45C1130.13 1197.45 1130.25 1197.45 1130.25 1197.33C1136.88 1195.32 1143.4 1192.83 1149.68 1189.87C1150.51 1189.51 1151.34 1189.16 1152.17 1188.68C1177.53 1178.97 1184.4 1187.26 1191.75 1192.83C1192.46 1193.42 1193.17 1194.02 1193.88 1194.73C1231.68 1228.86 1314.04 1300.31 1410.39 1365.73C1506.73 1431.14 1561.59 1441.21 1602.24 1436.59C1609.47 1436.24 1616.7 1435.52 1623.69 1433.98C1628.55 1432.92 1633.29 1431.61 1637.91 1429.84C1639.81 1429.13 1641.7 1428.3 1643.6 1427.35C1644.43 1426.99 1645.26 1426.52 1646.09 1426.16C1646.8 1425.81 1647.51 1425.45 1648.22 1424.98C1648.34 1424.98 1648.34 1424.86 1648.46 1424.86C1649.17 1424.5 1649.88 1424.03 1650.47 1423.67C1650.47 1423.67 1650.59 1423.67 1650.59 1423.56C1651.3 1423.2 1651.89 1422.73 1652.6 1422.25C1653.43 1421.66 1654.26 1421.19 1655.09 1420.59C1655.69 1420.24 1656.28 1419.76 1656.87 1419.29C1657.58 1418.82 1658.17 1418.34 1658.89 1417.75C1658.89 1417.75 1659 1417.75 1659 1417.63C1659.6 1417.16 1660.19 1416.68 1660.78 1416.09L1660.9 1415.97C1661.37 1415.5 1661.97 1415.02 1662.44 1414.67C1663.27 1413.84 1664.1 1413.13 1664.93 1412.3C1665.28 1411.94 1665.64 1411.47 1666.11 1411.11C1666.47 1410.76 1666.71 1410.4 1667.06 1410.05C1667.54 1409.57 1667.89 1409.1 1668.37 1408.62C1668.96 1407.91 1669.55 1407.32 1670.02 1406.61C1670.62 1405.9 1671.09 1405.19 1671.68 1404.48C1671.68 1404.48 1671.68 1404.48 1671.68 1404.36C1672.16 1403.65 1672.63 1402.94 1673.11 1402.23C1673.58 1401.63 1673.94 1400.92 1674.41 1400.33C1674.53 1400.21 1674.53 1400.09 1674.65 1400.09C1675.71 1398.79 1678.44 1399.86 1677.96 1401.87Z" fill="#28759E"/>
<path d="M1476.27 1055.49C1483.74 1050.15 1485.51 1039.84 1480.18 1032.38C1474.85 1024.91 1464.54 1023.14 1457.07 1028.47C1449.61 1033.8 1447.83 1044.11 1453.16 1051.58C1458.5 1059.04 1468.81 1060.82 1476.27 1055.49Z" fill="#28759E"/>
<path d="M1120.55 1048.04C1128.37 1040.22 1128.37 1027.54 1120.55 1019.72C1112.72 1011.9 1100.04 1011.9 1092.22 1019.72C1084.4 1027.54 1084.4 1040.22 1092.22 1048.04C1100.04 1055.87 1112.72 1055.87 1120.55 1048.04Z" fill="#28759E"/>
<path d="M1235.95 1901.36C1230.97 1896.26 1218.53 1882.75 1216.87 1872.68C1216.28 1868.89 1218.29 1863.79 1222.08 1859.17C1230.14 1849.34 1246.14 1841.99 1260.36 1856.21C1260.6 1858.46 1260.6 1860.59 1260.72 1862.61C1261.07 1879.79 1255.74 1893.06 1235.95 1901.36Z" fill="white"/>
<path d="M1212.72 1907.52C1208.81 1908.11 1204.55 1908.71 1199.92 1909.18C1184.87 1910.6 1168.28 1911.31 1151.69 1911.43C1147.78 1905.27 1143.75 1896.74 1146.6 1890.69C1151.34 1880.27 1178.95 1869.6 1190.8 1875.76C1199.33 1880.38 1208.34 1898.04 1212.72 1907.52Z" fill="white"/>
<path d="M1110.1 1910.96C1093.27 1910.48 1077.87 1909.65 1065.78 1908.94C1061.28 1880.98 1086.52 1879.32 1096.94 1884.18C1104.53 1887.85 1108.44 1902.54 1110.1 1910.96Z" fill="white"/>
<path d="M672.944 1877.66C632.535 1874.46 616.063 1863.79 612.508 1852.77C618.077 1847.2 629.572 1838.55 645.925 1841.04C666.308 1844.24 677.566 1861.31 672.944 1877.66Z" fill="white"/>
<path d="M754.948 1877.3C742.861 1877.54 729.707 1877.78 715.368 1878.25C707.547 1878.49 700.2 1878.61 693.445 1878.49C694.512 1871.61 698.067 1855.02 710.036 1849.45C724.493 1842.94 751.037 1846.14 754.948 1877.3Z" fill="white"/>
<path d="M792.397 1876.47C782.916 1876.83 772.251 1877.07 760.638 1877.3C759.334 1871.14 758.031 1861.31 760.638 1854.19C764.312 1843.53 791.567 1838.67 792.397 1876.47Z" fill="white"/>
<path d="M847.26 1864.5C844.179 1867.11 840.268 1869.24 835.528 1870.78C830.669 1872.44 824.863 1873.63 818.227 1874.46C811.472 1875.41 803.769 1875.88 795.119 1876.35C794.882 1864.03 794.763 1848.62 806.732 1841.99C814.79 1837.48 825.337 1836.89 833.514 1841.4C841.809 1846.14 845.719 1855.38 847.26 1864.5Z" fill="white"/>
<path d="M1677.96 1401.87C1677.96 1401.99 1677.96 1401.99 1677.96 1401.99C1672.28 1425.93 1652.01 1444.18 1629.38 1452.35C1610.06 1459.58 1588.85 1461.12 1568.35 1459.46C1534.1 1457.57 1502.82 1442.64 1473.31 1427.11C1427.69 1402.34 1385.03 1372.6 1343.55 1341.55C1343.08 1341.2 1342.6 1340.84 1342.25 1340.49C1339.17 1338.23 1336.2 1335.86 1333.12 1333.49C1292.36 1302.33 1252.78 1269.62 1214.5 1235.49C1214.5 1235.49 1214.38 1235.37 1214.15 1235.26C1211.06 1232.65 1186.3 1211.32 1177.17 1207.41C1169.35 1203.97 1163.43 1207.64 1147.9 1210.96C1144.11 1211.79 1139.73 1212.5 1134.63 1213.21C1131.31 1213.57 1128.11 1213.81 1124.91 1213.69C1124.68 1213.69 1124.32 1213.69 1124.08 1213.69C1123.61 1213.69 1123.14 1213.69 1122.78 1213.69C1122.31 1213.69 1121.83 1213.69 1121.36 1213.57C1118.87 1213.45 1116.5 1213.1 1114.13 1212.74C1113.77 1212.74 1113.54 1212.62 1113.18 1212.62C1110.69 1212.27 1108.32 1211.67 1106.07 1211.2C1105.6 1211.08 1105.12 1210.96 1104.65 1210.84C1104.06 1210.73 1103.46 1210.49 1102.99 1210.37C1102.99 1210.37 1102.99 1210.37 1102.87 1210.37C1099.08 1209.19 1099.55 1203.62 1103.58 1203.14H1103.7C1107.97 1202.67 1112.23 1201.96 1116.5 1201.01C1121.12 1200.06 1125.62 1198.88 1130.13 1197.45C1130.25 1197.45 1130.36 1197.45 1130.36 1197.34C1137 1195.32 1143.52 1192.83 1149.8 1189.87C1150.63 1189.51 1151.46 1189.16 1152.29 1188.68C1177.65 1178.97 1184.52 1187.26 1191.87 1192.83C1192.58 1193.42 1193.29 1194.02 1194 1194.73C1231.8 1228.86 1314.16 1300.31 1410.5 1365.73C1506.85 1431.14 1561.71 1441.21 1602.36 1436.59C1609.59 1436.24 1616.82 1435.52 1623.81 1433.98C1628.67 1432.92 1633.41 1431.61 1638.03 1429.84C1639.92 1429.13 1641.82 1428.3 1643.72 1427.35C1644.55 1426.99 1645.38 1426.52 1646.21 1426.16C1646.92 1425.81 1647.63 1425.45 1648.34 1424.98C1648.46 1424.98 1648.46 1424.86 1648.58 1424.86C1649.29 1424.5 1650 1424.03 1650.59 1423.67C1650.59 1423.67 1650.71 1423.67 1650.71 1423.56C1651.42 1423.2 1652.01 1422.73 1652.72 1422.25C1653.55 1421.66 1654.38 1421.19 1655.21 1420.59C1655.8 1420.24 1656.4 1419.76 1656.99 1419.29C1657.7 1418.82 1658.29 1418.34 1659 1417.75C1659 1417.75 1659.12 1417.75 1659.12 1417.63C1659.71 1417.16 1660.31 1416.68 1660.9 1416.09L1661.02 1415.97C1661.49 1415.5 1662.08 1415.02 1662.56 1414.67C1663.39 1413.84 1664.22 1413.13 1665.05 1412.3C1665.4 1411.94 1665.76 1411.47 1666.23 1411.11C1666.59 1410.76 1666.82 1410.4 1667.18 1410.05C1667.65 1409.57 1668.01 1409.1 1668.48 1408.62C1669.08 1407.91 1669.67 1407.32 1670.14 1406.61C1670.74 1405.9 1671.21 1405.19 1671.8 1404.48C1671.8 1404.48 1671.8 1404.48 1671.8 1404.36C1672.28 1403.65 1672.75 1402.94 1673.22 1402.23C1673.7 1401.63 1674.05 1400.92 1674.53 1400.33C1674.65 1400.21 1674.65 1400.09 1674.76 1400.09C1675.71 1398.79 1678.44 1399.86 1677.96 1401.87Z" fill="white"/>
</svg>
