<svg width="221" height="213" viewBox="0 0 221 213" fill="none" xmlns="http://www.w3.org/2000/svg">
<g filter="url(#filter0_d_988_2199)">
<path fill-rule="evenodd" clip-rule="evenodd" d="M63.7083 29.787C63.7083 29.8869 63.7076 29.9878 63.7064 30.0897V29.4904C63.7076 29.5882 63.7083 29.6871 63.7083 29.787ZM63.7102 30.0897C63.7089 29.9878 63.7083 29.8869 63.7083 29.787C63.7083 29.6871 63.7089 29.5882 63.7102 29.4904V30.0897ZM63.7102 83.4723V56.781V30.0897C63.8275 39.3615 69.3601 56.781 90.9989 56.781C69.3601 56.781 63.8275 74.2005 63.7102 83.4723ZM63.7083 83.775C63.7083 83.8749 63.7089 83.9738 63.7102 84.0716V83.4723C63.7089 83.5742 63.7083 83.6751 63.7083 83.775ZM63.7064 83.4723V84.0716C63.7076 83.9738 63.7083 83.8749 63.7083 83.775C63.7083 83.6751 63.7076 83.5742 63.7064 83.4723ZM36.4321 56.781C58.0589 56.7888 63.5891 74.2026 63.7064 83.4723V56.781V30.0897C63.5891 39.3594 58.0589 56.7732 36.4321 56.781Z" fill="#0D6EFD"/>
<path d="M90.9989 58.5072C80.718 58.5072 74.4416 62.6097 70.6689 67.6802C66.8371 72.83 65.4937 79.1167 65.4364 83.4835V84.0716C65.4364 85.0206 64.6704 85.7916 63.7214 85.7978C63.717 85.7978 63.7126 85.7978 63.7083 85.7978C63.7039 85.7978 63.6995 85.7978 63.6951 85.7978C62.7462 85.7916 61.9802 85.0206 61.9802 84.0716V83.4835C61.9229 79.1177 60.5801 72.8328 56.7502 67.6836C52.9794 62.6137 46.7063 58.5109 36.4315 58.5072C35.4784 58.5068 34.7059 57.7341 34.7059 56.781C34.7059 55.8279 35.4784 55.0551 36.4315 55.0548C46.7063 55.0511 52.9794 50.9482 56.7502 45.8784C60.5801 40.7292 61.9229 34.4442 61.9802 30.0785V29.4904C61.9802 28.5414 62.7462 27.7704 63.6951 27.7642C63.6995 27.7642 63.7039 27.7642 63.7083 27.7642C63.7126 27.7642 63.717 27.7642 63.7214 27.7642C64.6704 27.7704 65.4364 28.5414 65.4364 29.4904V30.0785C65.4937 34.4452 66.8371 40.732 70.6689 45.8818C74.4416 50.9522 80.718 55.0548 90.9989 55.0548C91.9523 55.0548 92.7251 55.8276 92.7251 56.781C92.7251 57.7343 91.9523 58.5072 90.9989 58.5072ZM90.9989 58.5072C88.1114 58.5072 85.4856 58.2094 83.1023 57.6674C73.036 60.1019 67.8265 67.1643 65.4364 73.982V83.4723L90.9989 58.5072ZM65.4364 39.58C67.8265 46.3976 73.036 53.46 83.1023 55.8946L65.4364 39.58ZM65.4364 39.58V30.0897" stroke="#0D6EFD" stroke-width="3.45237" stroke-linecap="round" stroke-linejoin="round"/>
</g>
<g filter="url(#filter1_d_988_2199)">
<mask id="path-3-outside-1_988_2199" maskUnits="userSpaceOnUse" x="80.0895" y="65.4261" width="109" height="109" fill="black">
<rect fill="white" x="80.0895" y="65.4261" width="109" height="109"/>
<path fill-rule="evenodd" clip-rule="evenodd" d="M134.2 70.9638C134.2 71.1448 134.198 71.3278 134.196 71.5125V70.4261C134.198 70.6035 134.2 70.7827 134.2 70.9638ZM134.203 71.5125C134.201 71.3278 134.2 71.1448 134.2 70.9638C134.2 70.7827 134.201 70.6035 134.203 70.4261V71.5125ZM134.203 168.268V119.89V71.5125C134.414 88.3175 144.375 119.89 183.336 119.89C144.376 119.89 134.414 151.463 134.203 168.268ZM134.2 168.817C134.2 168.998 134.201 169.177 134.203 169.355V168.268C134.201 168.453 134.2 168.636 134.2 168.817ZM134.196 168.268V169.355C134.198 169.177 134.2 168.998 134.2 168.817C134.2 168.636 134.198 168.453 134.196 168.268ZM85.0895 119.89C124.028 119.904 133.985 151.467 134.196 168.268V119.89V71.5125C133.985 88.3138 124.028 119.876 85.0895 119.89Z"/>
</mask>
<path fill-rule="evenodd" clip-rule="evenodd" d="M134.2 70.9638C134.2 71.1448 134.198 71.3278 134.196 71.5125V70.4261C134.198 70.6035 134.2 70.7827 134.2 70.9638ZM134.203 71.5125C134.201 71.3278 134.2 71.1448 134.2 70.9638C134.2 70.7827 134.201 70.6035 134.203 70.4261V71.5125ZM134.203 168.268V119.89V71.5125C134.414 88.3175 144.375 119.89 183.336 119.89C144.376 119.89 134.414 151.463 134.203 168.268ZM134.2 168.817C134.2 168.998 134.201 169.177 134.203 169.355V168.268C134.201 168.453 134.2 168.636 134.2 168.817ZM134.196 168.268V169.355C134.198 169.177 134.2 168.998 134.2 168.817C134.2 168.636 134.198 168.453 134.196 168.268ZM85.0895 119.89C124.028 119.904 133.985 151.467 134.196 168.268V119.89V71.5125C133.985 88.3138 124.028 119.876 85.0895 119.89Z" fill="#0D6EFD"/>
<path d="M134.196 70.4261L139.029 70.3638C138.995 67.7068 136.822 65.5758 134.165 65.5929C131.508 65.6101 129.363 67.7689 129.363 70.4261L134.196 70.4261ZM134.203 70.4261H139.036C139.036 67.7689 136.891 65.6101 134.234 65.5929C131.577 65.5758 129.404 67.7068 129.37 70.3638L134.203 70.4261ZM183.336 124.724C186.005 124.724 188.169 122.56 188.169 119.89C188.169 117.221 186.005 115.057 183.336 115.057V124.724ZM134.203 169.355L129.37 169.417C129.404 172.074 131.577 174.205 134.234 174.188C136.891 174.171 139.036 172.012 139.036 169.355H134.203ZM134.196 169.355H129.363C129.363 172.012 131.508 174.171 134.165 174.188C136.822 174.205 138.995 172.074 139.029 169.417L134.196 169.355ZM85.0895 119.89L85.0877 115.057C82.419 115.058 80.2562 117.222 80.2562 119.89C80.2562 122.559 82.419 124.723 85.0877 124.724L85.0895 119.89ZM139.029 71.5733C139.032 71.3684 139.033 71.1651 139.033 70.9635L129.366 70.964C129.366 71.1246 129.365 71.2871 129.363 71.4516L139.029 71.5733ZM129.363 70.4261V71.5125H139.029V70.4261H129.363ZM139.033 70.9635C139.033 70.7619 139.032 70.562 139.029 70.3638L129.363 70.4885C129.365 70.6449 129.366 70.8035 129.366 70.964L139.033 70.9635ZM129.366 70.9635C129.366 71.1651 129.368 71.3684 129.37 71.5733L139.036 71.4516C139.034 71.2871 139.033 71.1246 139.033 70.964L129.366 70.9635ZM129.37 70.3638C129.368 70.562 129.366 70.7619 129.366 70.9635L139.033 70.964C139.033 70.8035 139.034 70.6449 139.036 70.4885L129.37 70.3638ZM139.036 71.5125V70.4261H129.37V71.5125H139.036ZM129.37 119.89V168.268H139.036V119.89H129.37ZM129.37 71.5125V119.89H139.036V71.5125H129.37ZM183.336 115.057C165.377 115.057 154.594 107.882 148.125 99.1305C141.482 90.1431 139.132 79.1082 139.036 71.4517L129.37 71.5732C129.485 80.7218 132.221 93.8759 140.352 104.876C148.657 116.113 162.335 124.724 183.336 124.724V115.057ZM139.036 168.329C139.132 160.673 141.482 149.638 148.125 140.65C154.594 131.899 165.377 124.724 183.336 124.724V115.057C162.335 115.057 148.657 123.668 140.352 134.905C132.221 145.905 129.485 159.059 129.37 168.208L139.036 168.329ZM129.366 168.817C129.366 169.019 129.368 169.219 129.37 169.417L139.036 169.292C139.034 169.136 139.033 168.977 139.033 168.817L129.366 168.817ZM139.036 169.355V168.268H129.37V169.355H139.036ZM129.37 168.208C129.368 168.412 129.366 168.616 129.366 168.817L139.033 168.817C139.033 168.656 139.034 168.494 139.036 168.329L129.37 168.208ZM139.029 169.355V168.268H129.363V169.355H139.029ZM129.366 168.817C129.366 168.977 129.365 169.136 129.363 169.292L139.029 169.417C139.032 169.219 139.033 169.019 139.033 168.817L129.366 168.817ZM129.363 168.329C129.365 168.494 129.366 168.656 129.366 168.817L139.033 168.817C139.033 168.616 139.032 168.412 139.029 168.208L129.363 168.329ZM139.029 168.208C138.914 159.061 136.179 145.911 128.053 134.912C119.752 123.677 106.082 115.065 85.0912 115.057L85.0877 124.724C103.036 124.73 113.813 131.906 120.278 140.656C126.918 149.643 129.267 160.674 129.363 168.329L139.029 168.208ZM129.363 119.89V168.268H139.029V119.89H129.363ZM139.029 119.89V71.5125H129.363V119.89H139.029ZM129.363 71.4517C129.267 79.1064 126.918 90.1382 120.278 99.1245C113.813 107.875 103.036 115.051 85.0877 115.057L85.0912 124.724C106.082 124.716 119.752 116.104 128.053 104.869C136.179 93.87 138.914 80.7198 139.029 71.5732L129.363 71.4517Z" fill="#0D6EFD" mask="url(#path-3-outside-1_988_2199)"/>
</g>
<defs>
<filter id="filter0_d_988_2199" x="0.979736" y="0.0379639" width="125.472" height="125.486" filterUnits="userSpaceOnUse" color-interpolation-filters="sRGB">
<feFlood flood-opacity="0" result="BackgroundImageFix"/>
<feColorMatrix in="SourceAlpha" type="matrix" values="0 0 0 0 0 0 0 0 0 0 0 0 0 0 0 0 0 0 127 0" result="hardAlpha"/>
<feOffset dy="6"/>
<feGaussianBlur stdDeviation="16"/>
<feComposite in2="hardAlpha" operator="out"/>
<feColorMatrix type="matrix" values="0 0 0 0 0.430459 0 0 0 0 0.515566 0 0 0 0 0.956576 0 0 0 0.6 0"/>
<feBlend mode="normal" in2="BackgroundImageFix" result="effect1_dropShadow_988_2199"/>
<feBlend mode="normal" in="SourceGraphic" in2="effect1_dropShadow_988_2199" result="shape"/>
</filter>
<filter id="filter1_d_988_2199" x="48.2561" y="39.5928" width="171.913" height="172.595" filterUnits="userSpaceOnUse" color-interpolation-filters="sRGB">
<feFlood flood-opacity="0" result="BackgroundImageFix"/>
<feColorMatrix in="SourceAlpha" type="matrix" values="0 0 0 0 0 0 0 0 0 0 0 0 0 0 0 0 0 0 127 0" result="hardAlpha"/>
<feOffset dy="6"/>
<feGaussianBlur stdDeviation="16"/>
<feComposite in2="hardAlpha" operator="out"/>
<feColorMatrix type="matrix" values="0 0 0 0 0.430459 0 0 0 0 0.515566 0 0 0 0 0.956576 0 0 0 0.6 0"/>
<feBlend mode="normal" in2="BackgroundImageFix" result="effect1_dropShadow_988_2199"/>
<feBlend mode="normal" in="SourceGraphic" in2="effect1_dropShadow_988_2199" result="shape"/>
</filter>
</defs>
</svg>
