<svg width="160" height="161" viewBox="0 0 160 161" fill="none" xmlns="http://www.w3.org/2000/svg">
<g clip-path="url(#clip0_988_2293)">
<path d="M41.6636 124.131C30.9907 124.131 21.4971 117.297 18.0497 107.124L17.8165 106.357C17.0035 103.663 16.6629 101.397 16.6629 99.1301V53.6749L0.489455 107.663C-1.59067 115.604 3.14943 123.837 11.1025 126.03L114.192 153.638C115.479 153.972 116.766 154.131 118.033 154.131C124.672 154.131 130.739 149.725 132.44 143.23L138.446 124.131H41.6636Z" fill="#D7D7D7"/>
<path d="M59.9978 54.129C67.3515 54.129 73.3306 48.1486 73.3306 40.7949C73.3306 33.4412 67.3515 27.4608 59.9978 27.4608C52.6441 27.4608 46.6637 33.4412 46.6637 40.7949C46.6637 48.1486 52.6441 54.129 59.9978 54.129Z" fill="#D7D7D7"/>
<path d="M143.332 7.46033H43.3299C34.1439 7.46033 26.6632 14.941 26.6632 24.1282V97.4625C26.6632 106.65 34.1439 114.13 43.3299 114.13H143.332C152.52 114.13 160 106.65 160 97.4625V24.1282C160 14.941 152.52 7.46033 143.332 7.46033ZM43.3299 20.7944H143.332C145.173 20.7944 146.666 22.2874 146.666 24.1282V71.456L125.606 46.8815C123.372 44.2618 120.138 42.8616 116.665 42.7822C113.212 42.8018 109.972 44.335 107.759 46.9889L82.9976 76.7088L74.931 68.6618C70.3716 64.1023 62.9507 64.1023 58.3974 68.6618L39.9973 87.0558V24.1282C39.9973 22.2874 41.4902 20.7944 43.3299 20.7944Z" fill="#D7D7D7"/>
</g>
<defs>
<clipPath id="clip0_988_2293">
<rect width="160" height="160" fill="white" transform="translate(0 0.5896)"/>
</clipPath>
</defs>
</svg>
