<svg width="16" height="16" viewBox="0 0 16 16" fill="none" xmlns="http://www.w3.org/2000/svg">
<g clip-path="url(#clip0_1928_2279)">
<path d="M2.99967 14.6666V11.3333M2.99967 4.66665V1.33331M1.33301 2.99998H4.66634M1.33301 13H4.66634M8.66634 1.99998L7.51022 5.00589C7.32221 5.49471 7.22821 5.73912 7.08203 5.9447C6.95247 6.12691 6.79327 6.28611 6.61106 6.41567C6.40548 6.56185 6.16107 6.65585 5.67225 6.84386L2.66634 7.99998L5.67225 9.1561C6.16107 9.34411 6.40548 9.43811 6.61107 9.58429C6.79327 9.71385 6.95247 9.87305 7.08203 10.0553C7.22821 10.2608 7.32221 10.5053 7.51022 10.9941L8.66634 14L9.82246 10.9941C10.0105 10.5053 10.1045 10.2608 10.2507 10.0553C10.3802 9.87305 10.5394 9.71385 10.7216 9.58429C10.9272 9.43811 11.1716 9.34411 11.6604 9.1561L14.6663 7.99998L11.6604 6.84386C11.1716 6.65585 10.9272 6.56185 10.7216 6.41567C10.5394 6.28611 10.3802 6.12691 10.2507 5.9447C10.1045 5.73912 10.0105 5.49471 9.82246 5.00589L8.66634 1.99998Z" stroke="#0D0C0C" stroke-width="1.5" stroke-linecap="round" stroke-linejoin="round"/>
</g>
<defs>
<clipPath id="clip0_1928_2279">
<rect width="16" height="16" fill="white"/>
</clipPath>
</defs>
</svg>
