<svg width="22" height="22" viewBox="0 0 22 22" fill="none" xmlns="http://www.w3.org/2000/svg">
<path d="M11.5858 13.207L8.58579 10.207M13.5961 2.70703V1.20703M17.5355 4.26769L18.5961 3.20703M17.5355 12.207L18.5961 13.2677M9.59614 4.26769L8.53548 3.20703M19.0961 8.20703H20.5961M4.71716 20.0757L13.9544 10.8384C14.3504 10.4424 14.5484 10.2444 14.6226 10.016C14.6879 9.81521 14.6879 9.59886 14.6226 9.39801C14.5484 9.16969 14.3504 8.97168 13.9544 8.57566L13.2172 7.8384C12.8211 7.44238 12.6231 7.24438 12.3948 7.17019C12.194 7.10493 11.9776 7.10493 11.7768 7.17019C11.5484 7.24438 11.3504 7.44239 10.9544 7.8384L1.71716 17.0757C1.32114 17.4717 1.12313 17.6697 1.04894 17.898C0.983686 18.0989 0.983686 18.3152 1.04894 18.516C1.12313 18.7444 1.32114 18.9424 1.71716 19.3384L2.45442 20.0757C2.85043 20.4717 3.04844 20.6697 3.27677 20.7439C3.47761 20.8091 3.69396 20.8091 3.8948 20.7439C4.12313 20.6697 4.32114 20.4717 4.71716 20.0757Z" stroke="white" stroke-width="1.5" stroke-linecap="round" stroke-linejoin="round"/>
</svg>
