<svg width="40" height="40" viewBox="0 0 40 40" fill="none" xmlns="http://www.w3.org/2000/svg">
<path fill-rule="evenodd" clip-rule="evenodd" d="M14.9747 0H0V40H7.71513C6.47129 36.4428 6.70845 33.1662 7.7739 30.2851C8.97193 27.0454 11.1811 24.3933 13.2614 22.3765C16.9907 18.7613 19.475 14.1261 19.475 9.48995C19.475 7.79936 18.8546 5.99278 17.9753 4.3469C17.1024 2.71313 16.0574 1.39244 15.4078 0.716331C15.2053 0.505529 15.0611 0.260108 14.9747 0ZM11.8148 40H24.2807C23.6004 38.5303 23.1529 36.9118 23.0894 35.1396C22.9849 32.2252 23.9267 29.1148 26.19 25.7974C26.7814 24.9306 27.9635 24.7073 28.8303 25.2987C29.6972 25.8901 29.9204 27.0722 29.329 27.9391C27.4206 30.7361 26.8174 33.0628 26.887 35.0034C26.9511 36.7925 27.5938 38.4394 28.6279 40H40V0H19.7265C20.2653 0.744379 20.8209 1.6092 21.3269 2.55627C22.363 4.49561 23.275 6.93653 23.275 9.48995C23.275 15.4638 20.1175 21.0226 15.9064 25.1049C14.0166 26.9369 12.2556 29.1217 11.338 31.6031C10.4461 34.015 10.3159 36.7893 11.813 39.9963L11.8148 40ZM9.3999 12.8C10.5045 12.8 11.3999 11.9046 11.3999 10.8C11.3999 9.69543 10.5045 8.8 9.3999 8.8C8.29533 8.8 7.3999 9.69543 7.3999 10.8C7.3999 11.9046 8.29533 12.8 9.3999 12.8Z" fill="white"/>
</svg>
